<svg id="Fondo" xmlns="http://www.w3.org/2000/svg" viewBox="0 0 280.53 100.71"><defs><style>.cls-1{fill:#d8d8d8;}.cls-2{fill:#fff;stroke:#fff;stroke-miterlimit:10;stroke-width:2px;}.cls-3{fill:#333;}.cls-4{fill:#384c64;}</style></defs><path class="cls-1" d="M393.77,302.83c-24.44,18.41,2.21-41-55.24-21.84-44.2,14.73-52.62-48.36-11.45-66.66,28-12.43,59.18-13.53,77.59,10.9A55.42,55.42,0,0,1,393.77,302.83Z" transform="translate(-300.36 -205.71)"/><path class="cls-2" d="M332.66,223.5H358.8v5.26H338.93v16.13h18.36v5.18H338.93v22h-6.27Z" transform="translate(-300.36 -205.71)"/><path class="cls-2" d="M367.73,224.15a61.06,61.06,0,0,1,11.44-1c6.27,0,10.3,1.08,13.33,3.53a10.18,10.18,0,0,1,4,8.57c0,4.68-3.1,8.79-8.21,10.66V246c4.61,1.15,10,5,10,12.17a13.06,13.06,0,0,1-4.11,9.72c-3.38,3.1-8.85,4.54-16.77,4.54a72.63,72.63,0,0,1-9.72-.58ZM374,244h5.69c6.62,0,10.51-3.46,10.51-8.14,0-5.69-4.32-7.92-10.65-7.92a27.38,27.38,0,0,0-5.55.43Zm0,23.25a32.9,32.9,0,0,0,5.26.29c6.48,0,12.45-2.37,12.45-9.43,0-6.63-5.68-9.36-12.53-9.36H374Z" transform="translate(-300.36 -205.71)"/><path class="cls-3" d="M408.22,228.59q4.56.06,6.44.06,2.34,0,6.24-.06L420,241q-.27,3.51-.4,6.59c-.08,2.05-.13,3.47-.13,4.25a18.45,18.45,0,0,0,.32,3.72,5.93,5.93,0,0,0,1.18,2.53,5.06,5.06,0,0,0,2.35,1.57,9.56,9.56,0,0,0,3.15.53,8.62,8.62,0,0,0,2.63-.39,6.11,6.11,0,0,0,1.73-.87,5.65,5.65,0,0,0,1.17-1.22,8.49,8.49,0,0,0,1.08-2.09,12.68,12.68,0,0,0,.71-3.07c.17-1.28.41-4.19.7-8.72q.38-5.79.59-10.61a27.2,27.2,0,0,1,.32-4.67h12.92l-1.43,20.8c0,.39,0,.71,0,1a43.6,43.6,0,0,1-.75,8.6,11.31,11.31,0,0,1-2.1,4.35,13.16,13.16,0,0,1-4.28,3.33,21.27,21.27,0,0,1-6.38,2.09,42.72,42.72,0,0,1-7.24.62,41.89,41.89,0,0,1-6.33-.47,24.92,24.92,0,0,1-5.07-1.36,18.17,18.17,0,0,1-3.93-2.1,10,10,0,0,1-2.34-2.27,9,9,0,0,1-1.29-2.77,13.6,13.6,0,0,1-.53-3.89q0-.71.06-2.13c0-.94.13-2.31.26-4.08l.39-4.69c.09-1.23.2-3,.32-5.42Z" transform="translate(-300.36 -205.71)"/><path class="cls-3" d="M453,268.58q.56-5.16.88-9.29c.21-2.75.4-6,.56-9.58s.27-7.47.35-11.5.12-7.24.12-9.62c2.44.06,4.41.08,5.91.08s3.47,0,5.71-.13,4.44-.13,6.57-.13q3.75,0,6.67.29a16.45,16.45,0,0,1,4,.85,11.63,11.63,0,0,1,3,1.57,9.39,9.39,0,0,1,2.06,2.07,8.87,8.87,0,0,1,1.27,2.68,11.63,11.63,0,0,1,.45,3.29,13.2,13.2,0,0,1-.49,3.68,10.93,10.93,0,0,1-1.57,3.22,10.34,10.34,0,0,1-2.7,2.61,23.73,23.73,0,0,1-4.55,2.24l1.52,3.72c.43,1,.89,2.09,1.38,3.17l3.92,8.58c.18.37.49,1.1.94,2.2q-4.83-.06-6.5-.06c-1.4,0-3.71,0-6.91.06-.31-1-.88-2.9-1.7-5.66-.33-1.15-.62-2-.85-2.66q-.71-2.08-2.08-5.83l-3-8.29a17.46,17.46,0,0,0,3.1.29,11.08,11.08,0,0,0,3.88-.65,5.2,5.2,0,0,0,2.64-2,5,5,0,0,0,.89-2.84,3.71,3.71,0,0,0-.67-2.21,4,4,0,0,0-2.12-1.42,15.78,15.78,0,0,0-4.47-.47c-.69,0-1.39,0-2.13,0s-1.58.06-2.56.08q-.37,6-.66,14.64t-.38,17l-6.36-.06Q457.46,268.52,453,268.58Z" transform="translate(-300.36 -205.71)"/><path class="cls-3" d="M493.41,268.58c.23-4,.35-7,.35-8.91l1.73-1.7c.23-.23,2-2.18,5.41-5.83l9.72-10.52c1.14-1.27,2.45-2.78,4-4.54l-2.32,0L510,237h-4.07q-4.62,0-9.78.33.27-3.16.27-6.86c0-.47,0-1.1-.06-1.9q8.31.06,17.66.06,9.67,0,16.67-.06c-.13,2-.22,3.67-.26,4.86l-.12,3.93L528.59,239l-.82.85-18.33,20.07,4,0,4.16,0,8.08-.18,3.2-.15q-.33,5.22-.44,9-9.35-.06-17-.06H504.8l-7.56,0Z" transform="translate(-300.36 -205.71)"/><path class="cls-3" d="M529.88,268.58l2.43-4.22,15.16-28.54,1.61-3.19q.7-1.41,2-4,5.16.06,7.53.06,4.14,0,7.65-.06l4.27,12.21,8.7,23.5,1.7,4.28-6.16-.06q-2.46,0-7.25.06c-.85-3.23-2.09-7-3.71-11.37H549q-2.55,5.16-5.27,11.37l-6.68-.06C535.58,268.52,533.19,268.54,529.88,268.58Zm22.68-19.9h9.1q-3.39-10.32-3.71-11.37-1.94,4.29-3.28,7.05Z" transform="translate(-300.36 -205.71)"/><path class="cls-4" d="M453.43,269a3.44,3.44,0,0,1,1.52.59,2.56,2.56,0,0,0,.69.34c.05,0,.14.1.24.2s.59.29.93.44c1.13.44,1.33.63,1.42,1.71a3,3,0,0,1-.78,2.3,1.13,1.13,0,0,0-.34.54,1.31,1.31,0,0,1-.25.54c-.1.15-.24.49-.34.69a2.7,2.7,0,0,1-.29.59c-.05.14-.25.39-.25.58a1.69,1.69,0,0,1-.15.4,2.26,2.26,0,0,0-.34.73,2.35,2.35,0,0,1-.49.74.24.24,0,0,0-.15.19,3.79,3.79,0,0,1-.54,1.13.55.55,0,0,0-.14.34c0,.1-.15.25-.25.34a1.5,1.5,0,0,0-.29.49c-.05.2-.15.45-.2.59l-.19.49a3,3,0,0,1-.39.93,3.16,3.16,0,0,0-.35,1l-.05.44.25.05a16.75,16.75,0,0,0,2.5,0,6.42,6.42,0,0,0,1.71-.14,1.31,1.31,0,0,1,.64-.2.75.75,0,0,0,.54-.1c.59-.24.73-.19.93.1s.29.49.34.64.2.49.34.78.15.59.15.74,0,.39,0,.49a.29.29,0,0,1,.05.34c-.05.15-.05.15-.49.1s-1.72-.1-2.11-.1H455.2c-1.87.05-2.6.1-4,.1l-.44.05-.2.44a6.51,6.51,0,0,0-.29.63,1,1,0,0,1-.2.59c-.05.05-.44.79-.83,1.47a9.28,9.28,0,0,0-.83,2.06c-.1.44-.25.78-.25.83a10.9,10.9,0,0,0-.54,1.91c0,.1-.1.44-.15.69-.24.34-.24.44-.24,1.62a13.07,13.07,0,0,0,.05,1.66,2.94,2.94,0,0,1,.1.74c.09.34.09.34.29.39s.44,0,.74-.25a1.39,1.39,0,0,1,.44-.24l.63-.44a2.79,2.79,0,0,1,.69-.35,3.2,3.2,0,0,0,.64-.53,10,10,0,0,1,.88-.69.89.89,0,0,0,.24-.25s.35-.29.64-.58.78-.64.93-.79.39-.34.44-.39a2.44,2.44,0,0,0,.49-.44c.15-.2.34-.39.44-.39s.25-.1.3-.2a1.59,1.59,0,0,1,.29-.29c.1-.1.2-.15.2-.25s.14-.19.29-.34c.34-.25.39-.25.49-.2s.15.15.15.3a7.36,7.36,0,0,1-.35.78,2.18,2.18,0,0,0-.34,1,9,9,0,0,1-.68,1.57.33.33,0,0,0-.2.29,2.28,2.28,0,0,1-.29.59,1.75,1.75,0,0,0-.3.64c-.1.29-.19.34-1.22,1.52a2.64,2.64,0,0,0-.69.88,1.45,1.45,0,0,1-.34.44,9.36,9.36,0,0,1-.69.64,3.88,3.88,0,0,1-.49.39c-.1,0-.29.15-.44.24s-.44.25-1.22.25a4.68,4.68,0,0,1-3.09-.54c-.1-.1-.54-.34-.93-.59-.79-.49-.93-.59-1.13-.93a1.79,1.79,0,0,0-.34-.59,7.35,7.35,0,0,1-1-2,1.14,1.14,0,0,0-.2-.58,4.88,4.88,0,0,1-.19-1.72,13.92,13.92,0,0,1,.39-4.16c.05-.3.15-.69.15-.84a2,2,0,0,1,.14-.68,7,7,0,0,0,.25-.79l.24-.93a4,4,0,0,0,.35-1.12v-.49h-2c-1.23,0-2.26.05-2.7.09a2.12,2.12,0,0,1-1.08.1,6.55,6.55,0,0,0-2.25.15l-.64.39a6.28,6.28,0,0,1-.68.59c-.25.1-.39.15-.39.2a1.88,1.88,0,0,1-.49.39,4.77,4.77,0,0,0-.79.59c-.15.14-.29.29-.39.29a.8.8,0,0,0-.44.29,4,4,0,0,1-1.18.93c-.88.64-.93.69-1.81,1.42a4.28,4.28,0,0,1-1,.74,1.93,1.93,0,0,0-.59.54,2.22,2.22,0,0,1-.49.34c-.14,0-.39.25-1.61,1.52a10.42,10.42,0,0,1-2.21,1.76,1.71,1.71,0,0,0-.59.49c-.1.15-.24.3-.34.3a2.86,2.86,0,0,1-1.52-.64,2.87,2.87,0,0,0-.39-.39,1.94,1.94,0,0,1-.69-.93c-.14-.34-.1-.64.1-.74a3.25,3.25,0,0,0,1.62-1.12c.39-.35.93-.89,1.27-1.18s.74-.64,1-.88a2.33,2.33,0,0,1,.59-.49,2.56,2.56,0,0,0,.64-.54,13.64,13.64,0,0,1,1.17-.93c.44-.34.88-.74,1-.88a5,5,0,0,1,1.28-.93c.14-.1.29-.2.29-.35s.15-.19.24-.24c.3-.2.64-.49.64-.64s-.54-.24-1-.05a3.13,3.13,0,0,1-1.22.05,2.76,2.76,0,0,1-.88-.19,1.08,1.08,0,0,0-.3,0,9.17,9.17,0,0,1-2.64.15,1.78,1.78,0,0,1-.94-.73,3.86,3.86,0,0,1,.1-1.62.72.72,0,0,0,.3-.34c.14-.25.34-.25.58-.05s.3.14,1.77.1c.88,0,1.81-.05,2.11-.05h5.29l.58-.05.59-.49a4.8,4.8,0,0,1,.64-.44,5.44,5.44,0,0,0,1.37-1.18,2.75,2.75,0,0,1,.54-.54,1.48,1.48,0,0,0,.69-.49,2.72,2.72,0,0,1,.54-.29c.09,0,.24-.2.39-.35l.34-.34.44-.24a7,7,0,0,0,.88-.79,4.88,4.88,0,0,1,1-.83A11.82,11.82,0,0,0,443,277.9a2.52,2.52,0,0,1,.68-.49,1.88,1.88,0,0,0,.49-.35.87.87,0,0,1,.4-.44l.39-.29a2.14,2.14,0,0,1,1.08-.69c.09,0,.24-.1.49-.39a2.31,2.31,0,0,1,.58-.49,1.33,1.33,0,0,0,.44-.49,1.82,1.82,0,0,1,1.18-1,.94.94,0,0,0,.69-.34,3.24,3.24,0,0,1,1-1,3.69,3.69,0,0,0,.54-.49,2.67,2.67,0,0,1,.78-.49.34.34,0,0,0,.29-.39c.1-.35.2-.39.69-1C453.09,269.13,453.19,269,453.43,269Zm-4.75,9.06c-.1,0-.39.35-.39.44l-.3.2a2,2,0,0,0-.63.49,19.08,19.08,0,0,1-1.47,1.32.94.94,0,0,0-.35.3c-.14.09-.19.19-.29.19a10.44,10.44,0,0,0-1.71,1.47,5.57,5.57,0,0,1-.84.74,2,2,0,0,0-.59.49,3.5,3.5,0,0,0-.58.34.89.89,0,0,0-.3.29c0,.05-.19.2-.44.3s-.49.24-.54.39-.14.29-.24.34c-.3.25.05.64.39.44a2.63,2.63,0,0,1,.78-.09c.3,0,1.08-.05,1.72-.1s1.27-.05,1.62-.05c.73.05.93,0,1.07-.49l.2-.59a4.14,4.14,0,0,0,.49-1,3.75,3.75,0,0,1,.39-.93,6.07,6.07,0,0,1,.39-.68,17.35,17.35,0,0,1,1.23-2.41,6.18,6.18,0,0,0,.44-1.27C448.73,278.09,448.73,278.09,448.68,278.09Z" transform="translate(-300.36 -205.71)"/><path class="cls-4" d="M460.49,301.42a3.41,3.41,0,0,1-1.62-.74c-.49-.34-.58-.05-.78-.39s-1.18-.59-1.13-1c0-.2.59-1.28.64-1.57a6.54,6.54,0,0,1,.88-1.57l.83-1.32c.1-.29,1-1.72,1.18-2a1.91,1.91,0,0,0,.3-.69,4.13,4.13,0,0,1,.34-.49,3.62,3.62,0,0,0,.39-.63,2.65,2.65,0,0,1,.25-.44,4.57,4.57,0,0,0,.29-.59,3.2,3.2,0,0,1,.44-.74l.29-.54a2.33,2.33,0,0,1,.3-.49.57.57,0,0,0,.24-.34,3.45,3.45,0,0,1,.25-.44A5.55,5.55,0,0,0,464,287a7.6,7.6,0,0,1,.49-.83,4.57,4.57,0,0,0,.44-.79,1,1,0,0,1,.25-.49,4.52,4.52,0,0,0,.53-.88,2.59,2.59,0,0,1,.3-.49,4.76,4.76,0,0,0,.34-.68,6.79,6.79,0,0,1,.54-1.08,1.74,1.74,0,0,1,.64.19l.19.15a1.6,1.6,0,0,0,.59.39l.74.54a12.18,12.18,0,0,1,1.17,1.18.44.44,0,0,0,.15.24c.15.25.15.35.15.93a3,3,0,0,1-.15,1.23c-.15.29-.25.59-.29.68a.64.64,0,0,1-.2.35,14.47,14.47,0,0,0-1,2c-.1.24.2.19.49-.1a2.09,2.09,0,0,1,.54-.44,2.09,2.09,0,0,0,.49-.3,10.24,10.24,0,0,1,1.71-1.47l.45-.39c0-.1.19-.19.34-.29a8,8,0,0,0,1.32-.88,2.94,2.94,0,0,1,.64-.45,2.43,2.43,0,0,0,.54-.39,7,7,0,0,1,.63-.39c.4-.2.93-.54,1.38-.83a2.93,2.93,0,0,1,.93-.54,4.19,4.19,0,0,0,1-.69,1.87,1.87,0,0,1,1.12-.54.55.55,0,0,1,.3.15,2.5,2.5,0,0,0,.58.2,4.06,4.06,0,0,1,.69.29,1.41,1.41,0,0,0,.39.25,6,6,0,0,1,1.42,1.12,2.09,2.09,0,0,1,.59,1.18c0,.29,0,.44-.15.59l-.09.29a6,6,0,0,1-.4.59,1.45,1.45,0,0,0-.34.49,4.4,4.4,0,0,1-.78,1,.82.82,0,0,0-.25.34,2.89,2.89,0,0,1-.34.44,3.41,3.41,0,0,0-.69.79,6.24,6.24,0,0,1-.49.53l-.24.35a1.74,1.74,0,0,1-.34.49,3.58,3.58,0,0,0-.45.73,2.9,2.9,0,0,1-.44.69,5.09,5.09,0,0,0-.88,1.22,2.36,2.36,0,0,1-.39.44,2,2,0,0,0-.44.44.93.93,0,0,1-.54.25l-.39.15-.69-.3a3.38,3.38,0,0,1-1.61-1.47,3,3,0,0,1,0-1.86,3.07,3.07,0,0,0,.14-.44,12.14,12.14,0,0,1,.79-2c.09-.24.24-.49.24-.54l.2-.34a2.73,2.73,0,0,0,.24-.54v-.15l-.24.1a3,3,0,0,0-.44.44,1.55,1.55,0,0,1-.54.34l-.64.45a1.6,1.6,0,0,1-.44.34,1.78,1.78,0,0,0-.54.49,13.08,13.08,0,0,1-1.52,1.37c-.1.1-.24.2-.24.29s-.25.25-.44.4a4.13,4.13,0,0,0-.64.68l-.49.49c-.15,0-.34.3-.49.44a5.16,5.16,0,0,1-.74.74,3.18,3.18,0,0,0-.44.49,5.82,5.82,0,0,1-.68.59,3.54,3.54,0,0,0-.93.88,8.77,8.77,0,0,1-1.72,1.61s-.29.3-.54.59a2.68,2.68,0,0,1-.78.84,3.13,3.13,0,0,0-.59.53,1.24,1.24,0,0,1-.2.3c-.09,0-.24.24-.44.49a3.38,3.38,0,0,1-.68.59,1.87,1.87,0,0,0-.44.34C461,301.46,460.93,301.46,460.49,301.42Z" transform="translate(-300.36 -205.71)"/><path class="cls-4" d="M504.88,283.83a2.09,2.09,0,0,1-1.22.78c-.15,0-.35.05-.44.05a5,5,0,0,1-1.82.1h-.78a22.34,22.34,0,0,0-3.82.14,6.37,6.37,0,0,0-.83.2c-.4,0-.54.15-.94.83a3.32,3.32,0,0,1-.68.88,1.74,1.74,0,0,0-.39.49,7.73,7.73,0,0,1-.74.89c-.39.49-.88,1.07-1,1.32s-.49.59-.63.73a4.86,4.86,0,0,0-.94,1.28,1.32,1.32,0,0,1-.34.49.74.74,0,0,0-.15.39c0,.05-.19.34-.29.54a1.11,1.11,0,0,0-.24.54,4.8,4.8,0,0,1-.49.83,7.37,7.37,0,0,0-.94,2c0,.05-.14.2-.19.34-.54.88-.54,1.91,0,2a.88.88,0,0,0,.34.1.46.46,0,0,0,.34.1.44.44,0,0,1,.35.05c.14.09.29.09,1,.09a10.07,10.07,0,0,0,2-.24,4.25,4.25,0,0,0,1.17-.29,1.83,1.83,0,0,1,.54-.2,1.08,1.08,0,0,0,.49-.15,2.41,2.41,0,0,0,.39-.14,2.34,2.34,0,0,0,.39-.2,2.33,2.33,0,0,1,.64-.29c.2-.05.44-.2.59-.25s.59-.34,1-.54a10.59,10.59,0,0,0,1.13-.64l.58-.29c.05,0,.15-.1.3-.15s.49-.34.78-.54a7.7,7.7,0,0,0,1-.58,3.7,3.7,0,0,1,.74-.49,23,23,0,0,0,2.1-1.82c.49-.44.69-.49.54-.14,0,.14-.1.44-.14.68a6.35,6.35,0,0,1-.69,1.62,3.45,3.45,0,0,1-.83.88c-.89.74-.89.69-1.18,1.13a7.28,7.28,0,0,1-1.13.88,10.18,10.18,0,0,0-1.42.88,6.55,6.55,0,0,0-.54.44,4.61,4.61,0,0,1-.78.44,3.68,3.68,0,0,0-.64.35,5.5,5.5,0,0,1-1.56.78,4.62,4.62,0,0,0-1.23.64,3.23,3.23,0,0,1-.88.34,6.47,6.47,0,0,0-.74.25,7.78,7.78,0,0,1-2.1.44c-.15,0-.59.05-.88.05a2.73,2.73,0,0,1-1.62-.25,1.29,1.29,0,0,0-.49-.15.71.71,0,0,1-.39-.14.54.54,0,0,0-.35-.15.33.33,0,0,1-.24-.15.43.43,0,0,0-.3-.19,7.9,7.9,0,0,1-1.76-2,7.35,7.35,0,0,0-.44-1,2.64,2.64,0,0,1-.34-.74.66.66,0,0,0-.1-.49,6.32,6.32,0,0,1,0-1,15.09,15.09,0,0,1,.39-2.79l.25-.69a6.93,6.93,0,0,1,1.22-2.4c.1-.09.29-.39.44-.58a17.64,17.64,0,0,1,1.08-1.62c.24-.34.64-.83.83-1.18a8.18,8.18,0,0,1,.54-.73.6.6,0,0,0,.2-.39c0-.2,0-.2-.4-.25-.63-.05-.88-.39-1.07-1.71a6.67,6.67,0,0,0-.1-.74,5.62,5.62,0,0,1-.05-1.08,3.27,3.27,0,0,0,0-1c0-.19.2-.29.29-.19s.25.19.45.29a2.79,2.79,0,0,0,1.56.54,1.72,1.72,0,0,1,.69.15,4.39,4.39,0,0,0,.93.1c.69,0,.83-.05,1.42-1,0-.05,0-.05,0-.1.24-.2.34-.3.69-.64.14-.15.44-.49.63-.73a4.08,4.08,0,0,1,.49-.59c.1,0,.3-.25.49-.49.59-.74,1.13-1.42,1.57-1.86l.2-.2s0-.15.09-.24a1.2,1.2,0,0,0,.25-.49,1.68,1.68,0,0,1,.34-.54.5.5,0,0,1,.49-.25,3.28,3.28,0,0,1,.69.1,1.22,1.22,0,0,0,.54.1,3.48,3.48,0,0,1,1,.68c1.07,1.33,1.47,1.87,1.47,2.11a.73.73,0,0,0,.05.44.39.39,0,0,1,0,.44.42.42,0,0,0-.1.3,1,1,0,0,1-.3.44c-.09.15-.34.44-.44.63a1.34,1.34,0,0,1-.49.59.63.63,0,0,1-.19.15l-.05.05c-.44.49-.59.59-.59.83l-.1.3.69,0c.59.05.15.15.93.1h1.17c.4,0,.64.25.94.05s.83.1,1.32.1.19-.29.44-.15.69.25.69.64c0,.1,0,.34.09.54C505.37,283.14,505.32,283.34,504.88,283.83Zm-12.54-3.58c0,.05,0,.05-.1.1C492,280.64,493,279.32,492.34,280.25Zm7.45-.05c.1,0-.64.88-.44.59A2.66,2.66,0,0,1,499.79,280.2Z" transform="translate(-300.36 -205.71)"/></svg>