<?xml version="1.0" encoding="utf-8"?>
<!-- Generator: Adobe Illustrator 17.0.0, SVG Export Plug-In . SVG Version: 6.00 Build 0)  -->
<!DOCTYPE svg PUBLIC "-//W3C//DTD SVG 1.1//EN" "http://www.w3.org/Graphics/SVG/1.1/DTD/svg11.dtd">
<svg version="1.1" id="Capa_1" xmlns="http://www.w3.org/2000/svg" xmlns:xlink="http://www.w3.org/1999/xlink" x="0px" y="0px"
	 width="700px" height="400px" viewBox="0 0 700 400" enable-background="new 0 0 700 400" xml:space="preserve">
<g id="Sticker">
	<linearGradient id="SVGID_1_" gradientUnits="userSpaceOnUse" x1="137.3772" y1="208.7613" x2="560.8648" y2="453.262">
		<stop  offset="0" style="stop-color:#F0F0F0"/>
		<stop  offset="1" style="stop-color:#E3E2E2"/>
	</linearGradient>
	<path fill="url(#SVGID_1_)" d="M610.104,305.076c-0.457-0.086-0.92-0.13-1.385-0.13l-519.557-0.283H86.34
		c-3.85,0-7.074,2.914-7.462,6.744l-3.48,34.345c-0.214,2.109,0.476,4.211,1.897,5.785c1.422,1.573,3.444,2.471,5.564,2.471h219.859
		l311.125-0.01c3.852,0,7.077-2.918,7.462-6.75l2.357-23.456c0.011-0.103,0.019-0.205,0.025-0.308
		C624.268,313.669,619.189,306.788,610.104,305.076z"/>
	<linearGradient id="SVGID_2_" gradientUnits="userSpaceOnUse" x1="110.0774" y1="25.8741" x2="595.3682" y2="306.0568">
		<stop  offset="0" style="stop-color:#F0F0F0"/>
		<stop  offset="1" style="stop-color:#E3E2E2"/>
	</linearGradient>
	<path fill="url(#SVGID_2_)" d="M636.084,192.345c-2.876-16.197-9.933-30.639-19.407-39.763
		c-2.767-3.013-13.117-13.286-34.007-23.568c-7.182-3.507-11.707-6.165-14.555-8.099c0.572-0.027,1.191-0.042,1.863-0.042
		c0.622,0,1.274,0.014,1.94,0.041c13.291,1.142,18.54,5.334,28.931,13.63c1.761,1.406,3.581,2.859,5.565,4.392
		c2.674,2.066,5.91,3.13,9.173,3.13c2.112,0,4.236-0.446,6.226-1.354c5.065-2.312,8.433-7.238,8.748-12.797l2.741-48.333
		c0.232-4.095-1.223-8.107-4.026-11.101c-0.74-0.79-7.62-7.919-21.094-14.697c-17.1-8.603-37.867-13.15-60.057-13.15
		c-5.245,0-10.666,0.25-16.112,0.742c-1.459,0.129-14.947,1.521-29.813,9.759c-14.22,7.88-32.384,23.611-38.158,53.81
		c-0.03,0.157-0.057,0.314-0.082,0.471c-0.176,1.114-0.746,5.062-0.974,10.578c-6.242-15.131-15.483-29.02-27.414-40.922
		c-23.648-23.589-55.068-36.58-88.472-36.58c-33.477,0-64.953,13.042-88.63,36.724c-8.157,8.158-15.05,17.242-20.583,27.015
		l1.255-22.668c0.226-4.088-1.228-8.091-4.026-11.08c-0.74-0.791-7.618-7.919-21.089-14.698
		c-17.096-8.603-37.86-13.151-60.047-13.151c-5.245,0-10.665,0.25-16.109,0.742c-1.458,0.129-14.948,1.521-29.81,9.76
		c-14.218,7.881-32.374,23.616-38.127,53.82c-0.03,0.156-0.057,0.313-0.082,0.47c-0.546,3.462-4.9,34.249,9.107,54.766
		c2.716,4.257,10.293,12.66,31.367,25.617c10.102,6.183,17.849,10.867,23.362,14.176c-5.2-0.87-11.186-2.479-17.546-5.33
		c-15.548-6.945-21.459-13.458-22.502-14.714c-2.605-4.75-7.35-7.326-12.593-7.326c-0.935,0-1.885,0.082-2.843,0.248
		c-6.419,1.114-11.107,6.729-12.012,13.181c-0.195,1.387-4.749,34.282-3.462,62.535c0.17,3.732,1.726,7.266,4.365,9.911
		c0.774,0.776,7.969,7.789,21.984,14.936c17.922,9.14,39.574,14.684,62.615,16.033c0.106,0.006,0.272,0.013,0.378,0.017
		c0,0,0.61,0.023,1.736,0.023c5.456,0,19.826-0.514,35.379-5.279c9.81-3.005,18.374-7.227,25.564-12.513
		c5.725,8.693,15.563,14.445,26.723,14.445c8.437,0,16.117-3.281,21.844-8.627c5.413,3.043,11.563,4.633,18.076,4.633
		c5.426,0,10.946-1.142,15.984-3.24c15.605,6.728,32.636,10.256,49.724,10.256c25.227,0,49.164-7.504,69.255-20.811
		c5.248,10.532,16.125,17.788,28.671,17.788c12.661,0,23.629-7.371,28.833-18.04c2.688,1.697,5.806,3.502,9.367,5.316
		c17.935,9.138,39.585,14.681,62.609,16.03c0.106,0.006,0.272,0.013,0.378,0.017c0,0,0.61,0.023,1.736,0.023
		c5.456,0,19.826-0.514,35.378-5.279c21.603-6.619,37.234-19.075,45.205-36.022C639.031,226.032,638.436,205.587,636.084,192.345z
		 M504.444,185.81c10.104,6.182,17.852,10.865,23.365,14.174c-5.203-0.87-11.191-2.479-17.554-5.331
		c-15.556-6.949-21.472-13.466-22.515-14.721c-1.559-2.838-3.887-4.892-6.624-6.09c-0.354-0.826-0.723-1.661-1.125-2.508
		c-1.161-2.448-2.481-4.872-3.925-7.267C480.307,168.836,488.522,176.025,504.444,185.81z M222.288,152.271
		c-3.125-3.319-13.505-13.283-33.805-23.261c-7.149-3.504-11.658-6.162-14.498-8.095c0.569-0.027,1.185-0.042,1.853-0.042
		c0.622,0,1.272,0.014,1.938,0.041c13.256,1.137,18.483,5.297,28.829,13.531c1.814,1.444,3.69,2.936,5.742,4.514
		c2.669,2.052,5.893,3.107,9.143,3.107c0.727,0,1.453-0.073,2.176-0.179C223.064,145.313,222.606,148.778,222.288,152.271z"/>
</g>
<g>
	<path fill="#717375" d="M95.28,326.623h12.546c1.948,0,3.059-0.929,3.305-2.768c0.3-1.803-0.574-2.859-2.585-3.187H95.863
		L95.28,326.623z M86.34,312.163h23.662c7.183,1.184,10.579,5.027,10.242,11.618c-0.109,4.754-2.012,8.578-5.727,11.419
		l4.771,11.272h-11.371l-4.653-10.817H94.17l-1.029,10.836l-10.281,0.016L86.34,312.163z"/>
	<path fill="#717375" d="M156.152,346.489h-24.108c-6.883-0.402-9.842-6.101-8.749-17.083c1.046-10.981,5.335-16.663,12.8-17.027
		h23.443l-0.801,8.304h-20.794c-1.785-0.036-2.831,0.382-3.168,1.311l-0.856,2.968L158.291,325l-0.819,8.195l-24.19-0.128
		l0.009,1.967c0.082,1.62,0.628,2.513,1.748,2.604h21.978L156.152,346.489z"/>
	<path fill="#717375" d="M169.875,337.772h13.264c1.402-0.2,2.44-0.946,3.05-2.295c0.792-1.274,1.311-3.296,1.602-6.027
		c0.355-2.75,0.1-5.008-0.628-6.902c-0.546-1.13-1.529-1.784-3.132-1.803h-12.492L169.875,337.772z M163.657,312.331l23.143,0.055
		c7.365,0.419,10.488,6.119,9.395,17.046c-1.093,10.964-5.153,16.609-12.109,17.064h-23.844L163.657,312.331z"/>
	<path fill="#717375" d="M216.523,337.78h13.319c1.384-0.2,2.422-0.946,2.986-2.295c0.838-1.274,1.357-3.296,1.685-6.027
		c0.264-2.75,0.046-5.008-0.692-6.902c-0.501-1.13-1.557-1.784-3.105-1.803h-12.509L216.523,337.78z M210.286,312.339l23.161,0.055
		c7.402,0.419,10.488,6.119,9.405,17.046c-1.13,10.964-5.135,16.609-12.081,17.064h-23.862L210.286,312.339z"/>
	<path fill="#717375" d="M279.133,346.498h-24.126c-6.892-0.402-9.796-6.101-8.731-17.083c1.047-10.981,5.353-16.663,12.81-17.027
		h23.434l-0.855,8.304h-20.712c-1.775-0.036-2.85,0.382-3.196,1.311l-0.81,2.968l24.335,0.037l-0.874,8.195l-24.181-0.128
		l0.045,1.967c0.091,1.62,0.637,2.512,1.793,2.604h21.923L279.133,346.498z"/>
	<path fill="#717375" d="M305.044,323.898l-0.41,3.587h15.186l0.319-2.841c0.464-2.64-0.31-4.116-2.313-4.407h-9.213
		C306.209,320.292,304.98,321.511,305.044,323.898 M293.25,346.508l2.334-23.394c1.065-6.993,5.299-10.635,12.691-10.945
		l11.553,0.019c6.756,0.455,9.887,4.061,9.496,10.854l-2.358,23.456h-9.068l1.038-10.454l-15.222-0.054l-0.995,10.518H293.25z"/>
	<path fill="#717375" d="M364.695,321.19h-18.974c-1.256,0-2.249,0.018-2.95,0.164c-0.664,0.109-1.283,0.62-1.82,1.476
		c0.182,1.11,0.583,1.73,1.329,1.839c0.71,0.163,1.849,0.273,3.332,0.273h9.269c3.687,0.2,6.3,1.294,7.756,3.205
		c1.475,1.931,2.112,4.644,1.722,8.104c-0.51,3.478-1.776,6.046-3.66,7.721c-1.885,1.621-5.026,2.477-9.341,2.532h-20.676
		l0.893-8.742h19.619c1.703,0,2.995-0.072,3.888-0.199c0.865-0.092,1.475-0.765,1.821-1.949c-0.137-0.947-0.556-1.53-1.384-1.694
		c-0.783-0.199-2.094-0.291-3.933-0.291h-8.958c-3.933,0-6.738-0.965-8.394-2.895c-1.62-1.894-2.231-4.57-1.894-7.995
		c0.601-3.551,1.894-6.118,3.824-7.776c1.94-1.621,5.016-2.532,9.214-2.714h20.174L364.695,321.19z"/>
	<polygon fill="#717375" points="369.402,312.248 379.353,312.248 375.984,346.504 365.752,346.504 	"/>
	<path fill="#717375" d="M413.895,321.19h-18.919c-1.31,0-2.267,0.018-2.986,0.164c-0.664,0.109-1.265,0.62-1.82,1.476
		c0.182,1.11,0.618,1.73,1.329,1.839c0.729,0.163,1.821,0.273,3.35,0.273h9.223c3.76,0.2,6.345,1.294,7.802,3.205
		c1.494,1.931,2.094,4.644,1.693,8.104c-0.528,3.478-1.766,6.046-3.65,7.721c-1.875,1.621-5.008,2.477-9.323,2.532h-20.675
		l0.856-8.742h19.665c1.657,0,2.959-0.072,3.86-0.199c0.892-0.092,1.493-0.765,1.839-1.949c-0.109-0.947-0.61-1.53-1.366-1.694
		c-0.801-0.199-2.103-0.291-4.005-0.291h-8.904c-3.951,0-6.756-0.965-8.403-2.895c-1.64-1.894-2.277-4.57-1.912-7.995
		c0.592-3.551,1.885-6.118,3.833-7.776c1.976-1.621,4.998-2.532,9.232-2.714h20.175L413.895,321.19z"/>
	<path fill="#717375" d="M487.184,346.498h-24.108c-6.884-0.402-9.815-6.101-8.795-17.083c1.092-10.981,5.371-16.663,12.882-17.027
		h23.389l-0.8,8.304h-20.786c-1.73-0.036-2.822,0.382-3.123,1.311l-0.875,2.968l24.391,0.037l-0.883,8.195l-24.163-0.128
		l0.009,1.967c0.055,1.62,0.646,2.512,1.775,2.604h21.96L487.184,346.498z"/>
	<path fill="#717375" d="M490.881,346.492l3.451-34.384h23.269c6.674-0.146,9.87,3.497,9.496,10.927l-2.349,23.437h-9.122
		l2.258-21.488c0.428-2.204-0.383-3.242-2.422-3.096h-12.691l-2.412,24.604H490.881z"/>
	<path fill="#717375" d="M562.614,346.498h-24.109c-6.956-0.402-9.86-6.101-8.812-17.119c1.101-11,5.354-16.717,12.81-17.046h23.507
		l-0.81,8.323h-20.748c-1.557,0.036-2.668,0.528-3.405,1.639c-1.666,4.243-2.33,8.468-1.967,12.693
		c0.137,1.348,0.984,2.203,2.422,2.586l21.986,0.073L562.614,346.498z"/>
	<polygon fill="#717375" points="569.924,312.248 579.912,312.248 576.488,346.504 566.283,346.504 	"/>
	<g>
		<path fill="#717375" d="M591.866,323.898l-0.346,3.587h15.167l0.291-2.841c0.547-2.64-0.273-4.116-2.294-4.407h-9.195
			C593.076,320.292,591.866,321.511,591.866,323.898 M580.125,346.508l2.345-23.394c1.047-6.993,5.299-10.635,12.682-10.945
			l11.554,0.019c6.718,0.455,9.896,4.061,9.495,10.854l-2.358,23.456h-9.122l1.074-10.454l-15.213-0.054l-1.035,10.502
			L580.125,346.508z"/>
	</g>
	<polygon fill="#717375" points="454.282,312.215 419.276,312.215 418.319,321.848 430.792,321.867 428.206,346.489 
		438.422,346.489 440.861,321.867 453.334,321.867 	"/>
	<path fill="#CB2128" d="M221.489,127.065l2.676-48.333c0,0-25.975-27.754-84.943-22.418c0,0-45.522,4.025-54.553,51.447
		c0,0-4.425,28.063,6.846,44.216c0,0,4.006,7.12,26.666,21.052c22.643,13.859,33.513,20.215,33.513,20.215
		s16.033,8.467,8.613,18.102c-1.329,1.711-4.68,3.824-8.149,4.097c0,0-19.201,3.187-42.153-7.103
		c-22.669-10.126-28.96-20.215-28.96-20.215s-4.57,32.581-3.332,59.769c0,0,23.525,23.583,74.856,26.588
		c0,0,52.067,1.73,68.255-32.671c15.45-32.58,4.58-66.088-9.004-78.763c0,0-8.613-10.089-29.953-20.578
		c-21.286-10.435-26.694-16.608-27.595-24.276c0,0-0.328-13.385,24.454-12.256C199.62,107.652,207.368,116.212,221.489,127.065"/>
	<path fill="#CB2128" d="M615.586,127.065l2.741-48.333c0,0-25.984-27.754-84.962-22.418c0,0-45.522,4.025-54.589,51.447
		c0,0-4.444,28.063,6.855,44.216c0,0,3.997,7.12,26.667,21.052c22.651,13.859,33.521,20.215,33.521,20.215
		s15.988,8.467,8.623,18.102c-1.302,1.711-4.708,3.824-8.149,4.097c0,0-19.21,3.187-42.171-7.103
		c-22.669-10.126-28.97-20.215-28.97-20.215s-4.525,32.581-3.322,59.769c0,0,23.589,23.583,74.882,26.588
		c0,0,52.067,1.73,68.246-32.671c15.432-32.58,4.534-66.088-9.04-78.763c0,0-8.559-10.089-29.872-20.578
		c-21.368-10.435-26.74-16.608-27.65-24.276c0,0-0.337-13.385,24.472-12.256C593.727,107.652,601.539,116.212,615.586,127.065"/>
	<path fill="#CB2128" d="M258.506,254.142c0,9.415-7.629,17.01-17.034,17.01c-9.35,0-16.988-7.594-16.988-17.01
		c0-9.378,7.638-17.01,16.988-17.01C250.877,237.133,258.506,244.764,258.506,254.142"/>
	<path fill="#CB2128" d="M462.079,254.142c0,9.415-7.639,17.01-17.052,17.01c-9.36,0-17.016-7.594-17.016-17.01
		c0-9.378,7.657-17.01,17.016-17.01C454.44,237.133,462.079,244.764,462.079,254.142"/>
	<g>
		<path fill="#E42127" d="M440.42,172.247"/>
		<path fill="#CB2128" d="M441.302,205.592c-5.234-1.839-10.925-6.72-13.728-9.197c-3.679-3.242-5.709-4.516-16.133-2.276
			c0,0-8.322,1.857-12.564,3.643c-0.4,0.171-0.776,0.332-1.141,0.484c-0.422,0.623-0.854,1.24-1.298,1.846l-0.772-1.096
			c-2.384,0.659-4.301,0.152-7.213-3.493c0,0-6.492-4.116-12.537-16.481c-2.164-4.461-2.909-8.706-2.98-12.316L362.76,152.25l0,0
			c-1.051-1.345-2.318-3.292-2.318-3.292l0.001,0l-8.392-11.922l0,0c-0.605-0.86-1.015-1.442-1.745-2.479l0,0l-1.879-2.669l0,0
			l-2.078-2.952l0,0l-16.738-23.779c5.536-1.639,11.399-2.531,17.489-2.531c9.449,0,18.393,2.143,26.379,5.966
			c2.444-0.035,4.896,1.187,7.087,4.007c7.662,5.019,14.135,11.701,18.887,19.552c0.245,0.309,0.459,0.634,0.615,0.979
			c0.243,0.529,0.542,0.974,0.809,1.5c3.754,6.912,6.215,14.631,7.064,22.832c0.904-0.046,2.143-0.744,3.937-2.916l10.433-8.559
			c0,0,3.423-3.788,10.088-1.512c6.646,2.277,14.33,6.192,24.026,17.775c0.335,0.404,0.66,0.806,0.979,1.205
			C457.189,102.703,407.921,53.492,347.1,53.492c-60.935,0-110.344,49.425-110.344,110.36c0,27.476,10.043,52.595,26.653,71.903
			c0.09-0.305,0.17-0.56,0.233-0.751c1.202-3.607,9.869-25.15,29.553-37.388c0,0-0.327-3.771-3.141-7.704
			c-0.986-1.319-0.875-2.869-0.197-4.393c-2.554-6.736-3.963-14.035-3.963-21.667c0-14.66,5.117-28.064,13.684-38.607l11.922,17.418
			l0,0l6.45,9.424l0,0l14.789,21.607c2.753-0.007,6.525,2.345,8.299,4.127c2.131,2.167,7.247,7.576,8.459,15.88
			c0.289,1.968,0.473,3.736,0.589,5.335l7.704,11.255l0.774-0.728l4.798,5.882l-1.137,1.327l3.604,5.265l0.055,0.055
			c-3.284,1.085-6.714,1.864-10.231,2.352l-24.256,28.315c0,0-3.632,5.099-8.613,2.404c0,0-4.224-2.896,0-8.031
			c4.225-5.1,8.003-8.741,8.003-8.741s2.422-2.859,0.901-4.991c-1.512-2.13-11.462,2.131-11.462,2.131s-3.924,1.821-4.853,3.788
			c-0.875,1.911-11.241,17.341-18.516,22.784c15.07,7.718,32.149,12.072,50.244,12.072c45.695,0,84.872-27.747,101.622-67.32
			C445.67,206.842,443.042,206.205,441.302,205.592z"/>
		<path fill="#E42127" d="M275.513,247.514"/>
	</g>
	<g id="BlancoAuto_1_">
		<path fill="#FFFFFF" d="M314.488,180.388c-3.769,2.021-5.69-0.893-5.69-0.893l-12.4-16.718c0,0-2.768-4.079,3.204-6.702
			l16.019-7.388l-2.089-3.052c-3.109,1.605-14.579,7.503-20.34,10.148c0,0-4.789,2.294-0.437,7.721c0,0,8.585,12.529,8.867,13.112
			c0.328,0.583,2.914,3.624,3.041,7.248c0,0-8.54-3.095-10.634,2.786c0,0-1.457,3.26,3.396,8.705l0.619,0.765
			c0,0,10.252-2.276,14.923,4.808l2.403-0.146c0,0-0.127-17.81,3.951-20.087l-0.164-1.202
			C319.159,179.495,317.921,178.548,314.488,180.388z"/>
		<path fill="#FFFFFF" d="M349.986,209.689c-0.182,2.896-2.421,6.974-0.628,7.43c0.283,0.072,0.693-0.062,1.167-0.312l1.754-1.207
			c2.463-1.984,5.372-5.183,5.372-5.183l0.135-0.127l-7.704-11.255C350.454,204.182,350.083,207.522,349.986,209.689z"/>
		<path fill="#FFFFFF" d="M394.59,146.989c0.034-0.215,0.365-1.086,1.883-4.189c3.915-8.013-6.064-12.402-9.36-5.136
			c0,0-0.791,1.748-2.267,2.968c-0.656,0.51-1.611,1.093-1.993,1.348c-0.638,0.31-1.603,1.238-1.94-0.838
			c-0.228-1.585-0.409-4.898-0.318-11.655c0.318-15.225-5.427-15.826-5.427-15.826s-3.168-2.586-8.158,3.133
			c-4.97,5.773-8.302,9.36-18.573,14.987c-0.022,0.012-0.04,0.022-0.062,0.034l1.93,2.741c2.197-1.036,11.191-5.592,17.835-13.611
			c6.81-8.231,7.347,0.528,7.347,0.528l0.291,18.12c0,0,0.62,3.351-2.877,5.627c-2.798,1.831-8.199,5.649-10.142,7.028
			l10.176,14.456c-0.126-6.411,1.878-10.812,1.878-10.812S379.507,142.844,394.59,146.989z"/>
		<path fill="#FFFFFF" d="M314.134,209.689c0,0-6.573,6.902-7.502,1.985c-0.911-4.88,1.821-7.175,1.821-7.175
			c-0.51-3.205-3.969-4.498-6.628-4.808c-2.021-0.2-3.459,0.31-3.459,0.31c-12.245,2.258-24.655,22.09-24.655,22.09
			c-5.489,8.413-10.852,22.072-7.957,31.888c2.914,9.797,15.204,9.906,15.204,9.906c10.725-0.546,17.362-6.027,25.984-18.156
			c10.506-14.806,9.796-28.865,9.796-33.127C316.738,208.323,314.134,209.689,314.134,209.689z"/>
		<path fill="#FFFFFF" d="M401.508,160.483c-0.866-1.366-1.775-2.896-2.814-3.915c-2.749-2.805-5.626-4.061-5.626-4.061
			c-17.698-6.683-16.634,15.68-16.634,15.68c0,4.68,4.562,3.478,4.562,3.478c13.719-3.169,18.4-5.226,18.4-5.226
			S404.422,165.036,401.508,160.483z"/>
		<path fill="#FFFFFF" d="M407.334,175.124c0-1.366-0.61-4.389-3.022-2.441c-2.395,1.967-7.084,2.568-7.084,2.568
			c-5.162,1.075-6.946-0.237-12.7,0.054c-5.736,0.31-2.568,5.846-2.568,5.846c4.189,7.558,8.322,9.962,15.715,8.924
			C407.781,188.619,407.334,176.436,407.334,175.124z"/>
		<path fill="#FFFFFF" d="M414.717,188.819c-2.385-1.02-7.383,2.295-7.383,2.295C412.77,191.387,417.14,189.912,414.717,188.819z"/>
		<path fill="#FFFFFF" d="M463.062,177.565c-6.044-11.964-14.203-20.742-24.017-26.898c-9.815-6.192-15.077-3.187-15.077-3.187
			s-5.9,3.916-10.416,8.596c-4.58,4.698,1.039,3.606,1.039,3.606c5.043-0.856,5.972,0.856,4.37,3.06
			c-0.401,0.51-0.565,1.038-1.457,1.438c-1.466,0.692-3.605,1.202-4.188,1.839c-1.529,1.694-0.236,3.952-0.236,3.952
			c6.5,18.284,23.397,28.537,23.397,28.537c6.992,5.336,16.925,5.172,22.496,0.309C463.553,194.883,469.088,189.475,463.062,177.565
			z"/>
		<path fill="#FFFFFF" d="M350.514,222.328c-0.71,0.728-1.93,1.894-4.106,1.002c-2.231-0.892-2.822,0.109-2.822,0.109
			c-2.649,3.442-3.469,3.35-5.545,4.243c-2.13,0.892-1.547,1.93-1.547,1.93c3.049,3.496-0.692,7.904-0.692,7.904
			s-6.71,8.176-8.65,10.181c-1.912,2.002-0.983,2.622-0.983,2.622c1.22,1.238,2.922-1.093,2.922-1.093l27.577-30.795l-1.238-1.147
			C355.431,217.283,351.206,221.6,350.514,222.328z"/>
		<path fill="#FFFFFF" d="M321.617,222.237c0,0.892,0.71,1.62,1.639,1.62c0.847,0,1.593-0.728,1.593-1.62
			c0-0.911-0.746-1.603-1.593-1.603C322.328,220.634,321.617,221.326,321.617,222.237z"/>
		<path fill="#FFFFFF" d="M329.092,228.338c-2.322-1.402-8.44,2.767-8.44,2.767c-0.983,0.947,2.768,0.164,6.582-0.619
			C331.013,229.667,329.092,228.338,329.092,228.338z"/>
		<path fill="#FFFFFF" d="M329.72,196.522c14.349-6.173,13.447-8.158,13.447-8.158s-0.3-6.447-7.694-8.996
			c-7.42-2.586-11.198,3.46-13.765,7.685c-2.55,4.243-2.104,12.511-2.104,12.511C321.271,201.13,329.72,196.522,329.72,196.522z"/>
		<path fill="#FFFFFF" d="M330.011,203.68c0,0-1.876-0.273-4.461,0.438c-2.567,0.691-4.152,3.441-4.152,3.441
			c4.115,16.936,16.642,12.037,20.704,8.323c4.406-3.952,4.16-13.659,3.951-15.188c-0.218-1.493-1.894-0.346-1.894-0.346
			C337.441,207.267,330.011,203.68,330.011,203.68z"/>
	</g>
	<g id="NegroAuto_1_">
		<path fill="#211E1E" d="M315.622,148.688l-16.019,7.387c-5.972,2.622-3.204,6.702-3.204,6.702l12.4,16.718
			c0,0,1.921,2.914,5.69,0.893c3.433-1.84,4.671-0.893,4.671-0.893l0.164,1.202c-4.078,2.276-3.951,20.087-3.951,20.087
			l-2.403,0.146c-4.671-7.084-14.923-4.808-14.923-4.808l-0.619-0.765c-4.853-5.445-3.396-8.705-3.396-8.705
			c2.094-5.882,10.634-2.786,10.634-2.786c-0.127-3.624-2.713-6.665-3.041-7.248c-0.282-0.583-8.867-13.112-8.867-13.112
			c-4.352-5.427,0.437-7.721,0.437-7.721c5.755-2.643,17.218-8.537,20.339-10.148 M311.498,142.662l-1.243,0.593
			c-8.175,3.642-18.891,8.596-18.891,8.596c-9.213,5.154-3.159,12.985-3.159,12.985c0.51,0.674,2.449,3.278,4.17,6.101
			c2.322,3.715,4.425,7.831,4.425,7.831c-2.995,1.22-9.687,7.211-6.747,11.145c2.814,3.933,3.141,7.704,3.141,7.704
			c-19.684,12.238-28.351,33.781-29.553,37.388c-0.947,2.895-5.699,19.668,4.17,27.517c9.068,7.303,21.614,5.026,28.833-0.256
			c7.284-5.298,17.845-21.015,18.728-22.945c0.929-1.967,4.853-3.788,4.853-3.788s9.951-4.262,11.462-2.131
			c1.52,2.131-0.901,4.991-0.901,4.991s-3.778,3.641-8.003,8.741c-4.224,5.134,0,8.031,0,8.031c4.98,2.695,8.613-2.404,8.613-2.404
			l31.965-37.314l-4.798-5.882l-0.91,0.855c0,0-6.501,7.157-8.294,6.702c-1.793-0.455,0.446-4.534,0.628-7.43
			c0.128-2.841,0.729-7.686-0.491-15.989c-1.211-8.304-6.328-13.713-8.459-15.88c-2.085-2.094-6.937-4.99-9.641-3.897
			c-2.713,1.056-3.023,0.291-3.477-2.732c-0.455-3.023-3.642-1.347-3.642-1.347s-5.717,2.713-9.177,5.281
			c-3.505,2.55-5.972-0.765-5.972-0.765s-4.589-6.047-7.785-9.798c-3.632-4.316,1.411-5.864,1.411-5.864l15.195-6.612
			 M306.941,245.729c-8.622,12.128-15.259,17.61-25.984,18.156c0,0-12.291-0.109-15.204-9.906
			c-2.895-9.816,2.468-23.475,7.957-31.888c0,0,12.409-19.832,24.655-22.09c0,0,1.439-0.51,3.459-0.31
			c2.659,0.31,6.118,1.603,6.628,4.808c0,0-2.731,2.295-1.821,7.175c0.929,4.917,7.502-1.985,7.502-1.985s2.604-1.366,2.604,2.913
			C316.738,216.864,317.448,230.924,306.941,245.729z M319.605,199.564c0,0-0.446-8.268,2.104-12.511
			c2.567-4.225,6.345-10.271,13.765-7.685c7.393,2.55,7.694,8.996,7.694,8.996s0.901,1.985-13.447,8.158
			C329.72,196.522,321.271,201.13,319.605,199.564z M327.235,230.487c-3.815,0.783-7.566,1.566-6.582,0.619
			c0,0,6.118-4.17,8.44-2.767C329.092,228.338,331.013,229.667,327.235,230.487z M321.617,222.237c0-0.911,0.71-1.603,1.639-1.603
			c0.847,0,1.593,0.692,1.593,1.603c0,0.892-0.746,1.62-1.593,1.62C322.328,223.857,321.617,223.129,321.617,222.237z
			 M321.399,207.558c0,0,1.584-2.75,4.152-3.441c2.585-0.71,4.461-0.438,4.461-0.438s7.429,3.587,14.148-3.332
			c0,0,1.675-1.147,1.894,0.346c0.21,1.529,0.455,11.236-3.951,15.188C338.041,219.596,325.514,224.494,321.399,207.558z
			 M329.092,249.226c0,0-1.703,2.331-2.922,1.093c0,0-0.929-0.62,0.983-2.622c1.94-2.004,8.65-10.181,8.65-10.181
			s3.741-4.407,0.692-7.904c0,0-0.583-1.038,1.547-1.93c2.076-0.893,2.896-0.801,5.545-4.243c0,0,0.592-1.002,2.822-0.109
			c2.175,0.892,3.396-0.274,4.106-1.002c0.692-0.728,4.917-5.044,4.917-5.044l1.238,1.147L329.092,249.226z"/>
		<path fill="#211E1E" d="M468.816,183.72c0,0-2.713-9.798-12.391-21.471c-9.696-11.583-17.379-15.498-24.026-17.775
			c-6.665-2.276-10.088,1.512-10.088,1.512l-10.433,8.559c-3.023,3.661-4.48,3.151-5.39,2.349c-0.692-0.637-4.571-4.717-4.571-4.717
			c-5.381-3.933-1.885-5.609-0.928-10.125c1.366-6.337-0.101-7.139-0.92-8.923c-1.512-3.351-7.528-5.135-11.908-2.732
			c-4.379,2.422-4.671-0.291-4.671-6.174c0-5.9-1.958-10.253-1.958-10.253c-5.316-8.34-12.555-6.209-17.379,1.038
			c-4.852,7.267-17.804,13.927-17.804,13.927l2.078,2.952c0,0,9.968-4.488,18.584-15.094c4.99-5.718,8.158-3.133,8.158-3.133
			s5.745,0.601,5.427,15.826c-0.091,6.756,0.091,10.07,0.318,11.655c0.336,2.076,1.301,1.148,1.94,0.838
			c0.382-0.255,1.338-0.838,1.993-1.348c1.475-1.22,2.267-2.968,2.267-2.968c3.296-7.266,13.275-2.877,9.36,5.136
			c-1.518,3.103-1.85,3.974-1.883,4.189c-15.083-4.145-19.776,8.905-19.776,8.905s-4.907,10.744,1.101,23.128
			c6.045,12.366,12.537,16.481,12.537,16.481c4.088,5.117,6.208,4.061,10.425,2.258c4.242-1.785,12.564-3.643,12.564-3.643
			c10.424-2.24,12.454-0.965,16.133,2.276c2.803,2.476,8.494,7.357,13.728,9.197c4.189,1.475,13.475,3.151,21.605-4.316
			C472.303,192.589,468.761,183.629,468.816,183.72z M376.434,168.186c0,0-1.064-22.363,16.634-15.68c0,0,2.878,1.257,5.626,4.061
			c1.039,1.02,1.948,2.55,2.814,3.915c2.914,4.553-2.113,5.955-2.113,5.955s-4.68,2.058-18.4,5.226
			C380.996,171.664,376.434,172.867,376.434,168.186z M397.675,190.076c-7.393,1.038-11.526-1.366-15.715-8.924
			c0,0-3.168-5.535,2.568-5.846c5.754-0.291,7.538,1.02,12.7-0.054c0,0,4.689-0.601,7.084-2.568
			c2.412-1.948,3.022,1.075,3.022,2.441C407.334,176.436,407.781,188.619,397.675,190.076z M407.334,191.114
			c0,0,4.998-3.315,7.383-2.295C417.14,189.912,412.77,191.387,407.334,191.114z M458.974,198.817
			c-5.571,4.863-15.504,5.027-22.496-0.309c0,0-16.898-10.253-23.397-28.537c0,0-1.293-2.258,0.236-3.952
			c0.583-0.637,2.722-1.147,4.188-1.839c0.892-0.4,1.056-0.929,1.457-1.438c1.602-2.204,0.673-3.916-4.37-3.06
			c0,0-5.618,1.093-1.039-3.606c4.516-4.68,10.416-8.596,10.416-8.596s5.262-3.005,15.077,3.187
			c9.814,6.156,17.973,14.933,24.017,26.898C469.088,189.475,463.553,194.883,458.974,198.817z"/>
		<path fill="#211E1E" d="M375.778,139.594l-0.291-18.12c0,0-0.536-8.759-7.347-0.528c-6.642,8.016-15.635,12.573-17.835,13.611
			c0.73,1.036,1.14,1.619,1.745,2.479c10.89-5.692,15.999-10.681,15.999-10.681c5.116-5.226,4.715,0.874,4.715,0.874
			s0,6.392,0.137,9.98c0.154,3.624-2.995,5.426-2.995,5.426l-9.465,6.322c0,0,1.267,1.947,2.318,3.292
			c1.944-1.38,7.345-5.198,10.142-7.028C376.398,142.945,375.778,139.594,375.778,139.594z"/>
		<path fill="#211E1E" d="M450.735,165.454c-15.068-15.971-20.995-10.708-20.995-10.708c-4.37,4.024,1.676,13.84,1.676,13.84
			s8.776,13.403,19.656,16.499c7.128,2.022,9.459-2.95,7.128-8.65C456.325,171.938,450.735,165.454,450.735,165.454z
			 M442.75,173.595c-1.301,0-2.33-0.583-2.33-1.348c0-0.747,1.029-1.366,2.33-1.366c1.302,0,2.34,0.619,2.34,1.366
			C445.09,173.012,444.052,173.595,442.75,173.595z"/>
		<path fill="#211E1E" d="M296.389,208.852c-6.337-2.331-14.375,6.683-19.055,14.587c-1.047,1.766-1.985,3.551-2.777,5.117
			c-1.393,2.714-3.031,6.775-3.414,8.796c-2.075,10.472,4.37,10.162,4.37,10.162s8.649,0.546,19.064-17.902
			C305.157,210.727,296.389,208.852,296.389,208.852z M286.247,230.451c-1.93,0.874-3.915,0.546-4.516-0.729
			c-0.628-1.257,0.419-3.041,2.322-3.897c1.894-0.911,3.933-0.62,4.516,0.692C289.17,227.791,288.123,229.558,286.247,230.451z"/>
	</g>
</g>
<g display="none">
	<path display="inline" fill="#211E1E" d="M110.002,312.163H86.34l-3.48,34.345l10.281-0.016l1.029-10.836h9.095l4.653,10.817
		h11.371l-4.771-11.272c3.714-2.841,5.617-6.665,5.727-11.419C120.581,317.19,117.185,313.348,110.002,312.163z M111.131,323.855
		c-0.246,1.839-1.357,2.768-3.305,2.768H95.281l0.582-5.955h12.683C110.557,320.995,111.431,322.052,111.131,323.855z"/>
	<path display="inline" fill="#211E1E" d="M123.295,329.406c-1.093,10.982,1.866,16.681,8.749,17.083h24.108l0.865-8.851h-21.978
		c-1.12-0.092-1.666-0.984-1.748-2.604l-0.009-1.967l24.19,0.128l0.819-8.195l-24.372-0.037l0.856-2.968
		c0.337-0.929,1.384-1.348,3.168-1.312h20.794l0.801-8.304h-23.443C128.629,312.744,124.341,318.425,123.295,329.406z"/>
	<path display="inline" fill="#211E1E" d="M186.8,312.386l-23.143-0.055l-3.414,34.165h23.844
		c6.955-0.455,11.016-6.101,12.109-17.064C197.288,318.505,194.165,312.805,186.8,312.386z M187.792,329.45
		c-0.291,2.731-0.81,4.753-1.602,6.027c-0.611,1.349-1.648,2.094-3.05,2.295h-13.264l1.665-17.027h12.492
		c1.602,0.019,2.586,0.673,3.132,1.803C187.892,324.442,188.147,326.7,187.792,329.45z"/>
	<path display="inline" fill="#211E1E" d="M233.447,312.394l-23.161-0.055l-3.377,34.165h23.862
		c6.946-0.455,10.952-6.101,12.081-17.064C243.935,318.513,240.849,312.813,233.447,312.394z M234.512,329.458
		c-0.328,2.731-0.847,4.753-1.684,6.027c-0.564,1.349-1.602,2.094-2.986,2.295h-13.319l1.684-17.027h12.509
		c1.548,0.019,2.604,0.673,3.105,1.803C234.558,324.45,234.777,326.708,234.512,329.458z"/>
	<path display="inline" fill="#211E1E" d="M246.275,329.415c-1.065,10.982,1.839,16.681,8.731,17.083h24.126l0.856-8.851h-21.923
		c-1.156-0.092-1.702-0.984-1.794-2.604l-0.045-1.967l24.181,0.128l0.874-8.195l-24.335-0.037l0.81-2.968
		c0.346-0.929,1.421-1.348,3.196-1.312h20.712l0.855-8.304h-23.434C251.629,312.753,247.322,318.434,246.275,329.415z"/>
	<path display="inline" fill="#211E1E" d="M319.829,312.188l-11.553-0.019c-7.393,0.31-11.626,3.952-12.691,10.945l-2.334,23.394
		h9.469l0.995-10.518l15.222,0.054l-1.038,10.454h9.068l2.358-23.456C329.716,316.249,326.584,312.643,319.829,312.188z
		 M320.139,324.644l-0.319,2.841h-15.186l0.41-3.587c-0.064-2.386,1.165-3.606,3.569-3.661h9.214
		C319.829,320.528,320.603,322.004,320.139,324.644z"/>
	<path display="inline" fill="#211E1E" d="M336.162,314.962c-1.93,1.657-3.223,4.225-3.824,7.776
		c-0.337,3.424,0.274,6.101,1.894,7.995c1.657,1.93,4.461,2.896,8.394,2.896h8.958c1.839,0,3.15,0.092,3.933,0.291
		c0.828,0.164,1.247,0.748,1.384,1.694c-0.347,1.183-0.956,1.857-1.821,1.949c-0.893,0.127-2.185,0.199-3.888,0.199h-19.619
		l-0.893,8.742h20.676c4.315-0.055,7.456-0.911,9.341-2.532c1.884-1.675,3.15-4.243,3.66-7.721c0.391-3.46-0.246-6.173-1.722-8.104
		c-1.456-1.911-4.069-3.005-7.756-3.205h-9.269c-1.484,0-2.622-0.109-3.332-0.273c-0.746-0.109-1.147-0.729-1.329-1.839
		c0.537-0.856,1.156-1.366,1.82-1.476c0.702-0.146,1.694-0.164,2.95-0.164h18.974l0.855-8.942h-20.174
		C341.178,312.43,338.101,313.341,336.162,314.962z"/>
	<polygon display="inline" fill="#211E1E" points="365.752,346.504 375.984,346.504 379.353,312.248 369.402,312.248 	"/>
	<path display="inline" fill="#211E1E" d="M385.38,314.962c-1.948,1.657-3.241,4.225-3.833,7.776
		c-0.364,3.424,0.273,6.101,1.912,7.995c1.647,1.93,4.452,2.896,8.403,2.896h8.904c1.902,0,3.204,0.092,4.005,0.291
		c0.756,0.164,1.257,0.748,1.366,1.694c-0.346,1.183-0.947,1.857-1.839,1.949c-0.902,0.127-2.203,0.199-3.861,0.199h-19.665
		l-0.856,8.742h20.675c4.316-0.055,7.448-0.911,9.323-2.532c1.885-1.675,3.123-4.243,3.65-7.721c0.401-3.46-0.199-6.173-1.693-8.104
		c-1.457-1.911-4.042-3.005-7.802-3.205h-9.223c-1.529,0-2.622-0.109-3.35-0.273c-0.71-0.109-1.147-0.729-1.329-1.839
		c0.555-0.856,1.156-1.366,1.82-1.476c0.719-0.146,1.676-0.164,2.986-0.164h18.919l0.892-8.942h-20.175
		C390.378,312.43,387.356,313.341,385.38,314.962z"/>
	<path display="inline" fill="#211E1E" d="M454.282,329.415c-1.02,10.982,1.911,16.681,8.795,17.083h24.108l0.875-8.851h-21.96
		c-1.13-0.092-1.721-0.984-1.775-2.604l-0.009-1.967l24.163,0.128l0.883-8.195l-24.391-0.037l0.875-2.968
		c0.301-0.929,1.393-1.348,3.123-1.312h20.786l0.8-8.304h-23.389C459.653,312.753,455.374,318.434,454.282,329.415z"/>
	<path display="inline" fill="#211E1E" d="M517.601,312.108h-23.269l-3.451,34.384h9.478l2.412-24.604h12.691
		c2.039-0.147,2.85,0.892,2.422,3.096l-2.258,21.488h9.122l2.349-23.437C527.471,315.606,524.275,311.963,517.601,312.108z"/>
	<path display="inline" fill="#211E1E" d="M529.693,329.379c-1.047,11.018,1.857,16.717,8.812,17.119h24.109l0.874-8.851
		l-21.986-0.073c-1.438-0.383-2.285-1.238-2.422-2.586c-0.364-4.226,0.301-8.45,1.967-12.693c0.737-1.111,1.848-1.603,3.405-1.639
		h20.748l0.81-8.323h-23.507C535.046,312.662,530.794,318.379,529.693,329.379z"/>
	<polygon display="inline" fill="#211E1E" points="566.283,346.504 576.488,346.504 579.912,312.248 569.924,312.248 	"/>
	<path display="inline" fill="#211E1E" d="M606.706,312.188l-11.554-0.019c-7.383,0.31-11.635,3.952-12.682,10.945l-2.345,23.394
		l9.422-0.016l1.035-10.502l15.213,0.054l-1.074,10.454h9.122l2.358-23.456C616.602,316.249,613.424,312.643,606.706,312.188z
		 M606.978,324.644l-0.291,2.841H591.52l0.346-3.587c0-2.386,1.211-3.606,3.623-3.661h9.195
		C606.706,320.528,607.526,322.004,606.978,324.644z"/>
	<polygon display="inline" fill="#211E1E" points="419.276,312.215 418.319,321.848 430.792,321.867 428.206,346.489 
		438.422,346.489 440.861,321.867 453.334,321.867 454.282,312.215 	"/>
	<path display="inline" d="M636.084,192.345c-2.876-16.197-9.933-30.639-19.407-39.763c-2.767-3.013-13.117-13.286-34.007-23.568
		c-7.182-3.507-11.707-6.165-14.555-8.099c0.572-0.027,1.191-0.042,1.863-0.042c0.622,0,1.274,0.014,1.94,0.041
		c13.291,1.142,18.54,5.334,28.931,13.63c1.761,1.406,3.581,2.859,5.565,4.392c2.674,2.066,5.91,3.13,9.173,3.13
		c2.112,0,4.236-0.446,6.226-1.354c5.065-2.312,8.433-7.238,8.748-12.797l2.741-48.333c0.232-4.095-1.223-8.107-4.026-11.101
		c-0.74-0.79-7.62-7.919-21.094-14.697c-17.1-8.603-37.867-13.15-60.057-13.15c-5.245,0-10.666,0.25-16.112,0.742
		c-1.459,0.129-14.947,1.521-29.813,9.759c-14.22,7.88-32.384,23.611-38.158,53.81c-0.03,0.157-0.057,0.314-0.082,0.471
		c-0.176,1.114-0.746,5.062-0.974,10.578c-6.242-15.131-15.483-29.02-27.414-40.922c-23.648-23.589-55.068-36.58-88.472-36.58
		c-33.477,0-64.953,13.042-88.63,36.724c-8.157,8.158-15.05,17.242-20.583,27.015l1.255-22.668c0.226-4.088-1.228-8.091-4.026-11.08
		c-0.74-0.791-7.618-7.919-21.089-14.698c-17.096-8.603-37.86-13.151-60.047-13.151c-5.245,0-10.665,0.25-16.109,0.742
		c-1.458,0.129-14.948,1.521-29.81,9.76c-14.218,7.881-32.374,23.616-38.127,53.82c-0.03,0.156-0.057,0.313-0.082,0.47
		c-0.546,3.462-4.9,34.249,9.107,54.766c2.716,4.257,10.293,12.66,31.367,25.617c10.102,6.183,17.849,10.867,23.362,14.176
		c-5.2-0.87-11.186-2.479-17.546-5.33c-15.548-6.945-21.459-13.458-22.502-14.714c-2.605-4.75-7.35-7.326-12.593-7.326
		c-0.935,0-1.885,0.082-2.843,0.248c-6.419,1.114-11.107,6.729-12.012,13.181c-0.195,1.387-4.749,34.282-3.462,62.535
		c0.17,3.732,1.726,7.266,4.365,9.911c0.774,0.776,7.969,7.789,21.984,14.936c17.922,9.14,39.574,14.684,62.615,16.033
		c0.106,0.006,0.272,0.013,0.378,0.017c0,0,0.61,0.023,1.736,0.023c5.456,0,19.826-0.514,35.379-5.279
		c9.81-3.005,18.374-7.227,25.564-12.513c5.725,8.693,15.563,14.445,26.723,14.445c8.437,0,16.117-3.281,21.844-8.627
		c5.413,3.043,11.563,4.633,18.076,4.633c5.426,0,10.946-1.142,15.984-3.24c15.605,6.728,32.636,10.256,49.724,10.256
		c25.227,0,49.164-7.504,69.255-20.811c5.248,10.532,16.125,17.788,28.671,17.788c12.661,0,23.629-7.371,28.833-18.04
		c2.688,1.697,5.806,3.502,9.367,5.316c17.935,9.138,39.585,14.681,62.609,16.03c0.106,0.006,0.272,0.013,0.378,0.017
		c0,0,0.61,0.023,1.736,0.023c5.456,0,19.826-0.514,35.378-5.279c21.603-6.619,37.234-19.075,45.205-36.022
		C639.031,226.032,638.436,205.587,636.084,192.345z M456.942,224.248c-0.003,0.062-0.006,0.122-0.008,0.184
		c-0.026-0.01-0.052-0.02-0.077-0.031C456.884,224.35,456.913,224.3,456.942,224.248z M504.444,185.81
		c10.104,6.182,17.852,10.865,23.365,14.174c-5.203-0.87-11.191-2.479-17.554-5.331c-15.556-6.949-21.472-13.466-22.515-14.721
		c-1.559-2.838-3.887-4.892-6.624-6.09c-0.354-0.826-0.723-1.661-1.125-2.508c-1.161-2.448-2.481-4.872-3.925-7.267
		C480.307,168.836,488.522,176.025,504.444,185.81z M222.288,152.271c-3.125-3.319-13.505-13.283-33.805-23.261
		c-7.149-3.504-11.658-6.162-14.498-8.095c0.569-0.027,1.185-0.042,1.853-0.042c0.622,0,1.272,0.014,1.938,0.041
		c13.256,1.137,18.483,5.297,28.829,13.531c1.814,1.444,3.69,2.936,5.742,4.514c2.669,2.052,5.893,3.107,9.143,3.107
		c0.727,0,1.453-0.073,2.176-0.179C223.064,145.313,222.606,148.778,222.288,152.271z"/>
</g>
</svg>
