<?xml version="1.0" encoding="utf-8"?>
<!-- Generator: Adobe Illustrator 27.6.1, SVG Export Plug-In . SVG Version: 6.00 Build 0)  -->
<svg version="1.1" id="Capa_2" xmlns="http://www.w3.org/2000/svg" xmlns:xlink="http://www.w3.org/1999/xlink" x="0px" y="0px"
	 viewBox="0 0 1600 300" style="enable-background:new 0 0 1600 300;" xml:space="preserve">
<style type="text/css">
	.st0{fill:#FFF5F5;}
	.st1{fill:#76A4B8;}
	.st2{fill:#DA7D81;}
	.st3{fill:#CD5257;}
	.st4{fill:#C1272D;}
</style>
<g>
	<g>
		<path class="st0" d="M1511.36,220.86v-4.85v-39.09v-14.65v-58.59c0-10.79-8.74-19.53-19.53-19.53h-31.38
			c-3.36,0-6.09,2.73-6.09,6.09v7.35c0,3.36,2.73,6.09,6.09,6.09h26.49c2.69,0,4.88,2.2,4.88,4.88v24.08c0,2.69-2.2,4.88-4.88,4.88
			h-26.52c-3.35,0-6.07,2.72-6.07,6.07v96.81h56.6c5.35,0,10.01-4.13,10.16-9.48C1521.28,225.38,1516.85,220.86,1511.36,220.86z"/>
		<path class="st1" d="M1569.95,131.32v67.57c0,12-9.58,21.73-21.53,21.97c-12.32,0.25-22.41-10.21-22.41-22.54v-9.19
			c0-6.74-5.47-12.21-12.22-12.21h-2.44v-14.65h2.44c14.84,0,26.86,12.02,26.86,26.85v9.76c0,4.29,3.64,7.69,8.01,7.3
			c3.81-0.35,6.63-3.76,6.63-7.58v-46.71c-8.42-2.17-14.65-9.83-14.65-18.93v-19.53l-9.76-9.76c-2.86-2.85-2.68-7.62,0.52-10.23
			c2.79-2.28,6.92-1.84,9.46,0.7l23.33,23.33C1567.89,121.14,1569.95,126.12,1569.95,131.32z"/>
	</g>
	<g>
		<path class="st0" d="M49.69,224.66c-12.2-10.49-18.68-25.48-19.42-44.98c-0.15-4.17-0.22-10.94-0.22-20.31
			c0-9.38,0.07-16.22,0.22-20.54c0.59-18.75,7.1-33.29,19.53-43.64c12.42-10.34,29.28-15.51,50.56-15.51
			c14.29,0,26.75,2.31,37.39,6.92c10.64,4.61,18.75,10.53,24.33,17.75c5.58,7.22,8.52,14.62,8.82,22.21c0,1.34-0.48,2.49-1.45,3.46
			c-0.97,0.97-2.12,1.45-3.46,1.45h-34.6c-1.49,0-2.65-0.26-3.46-0.78c-0.82-0.52-1.6-1.3-2.34-2.34
			c-1.79-4.17-4.65-7.74-8.59-10.71c-3.95-2.98-9.49-4.46-16.63-4.46c-17.27,0-26.19,8.93-26.79,26.79
			c-0.15,4.17-0.22,10.57-0.22,19.2s0.07,15.11,0.22,19.42c0.59,18.9,9.67,28.35,27.23,28.35c8.63,0,15.48-2.16,20.54-6.47
			c5.06-4.31,7.59-10.86,7.59-19.64v-4.02h-19.87c-1.64,0-3.01-0.56-4.13-1.67c-1.12-1.12-1.68-2.49-1.68-4.13v-17.41
			c0-1.64,0.56-3.01,1.68-4.13c1.11-1.11,2.49-1.67,4.13-1.67h56.7c1.63,0,3.01,0.56,4.13,1.67c1.12,1.12,1.68,2.49,1.68,4.13v25.89
			c0,12.65-2.94,23.55-8.82,32.7c-5.88,9.15-14.17,16.15-24.89,20.98c-10.71,4.84-23.21,7.25-37.5,7.25
			C78.78,240.39,61.89,235.15,49.69,224.66z"/>
		<path class="st0" d="M198.02,236.49c-1.12-1.12-1.67-2.42-1.67-3.91V87.71c0-1.64,0.52-3.01,1.56-4.13
			c1.04-1.12,2.38-1.67,4.02-1.67h105.36c1.64,0,3.01,0.56,4.13,1.67c1.12,1.12,1.68,2.49,1.68,4.13v22.1
			c0,1.64-0.56,2.98-1.68,4.02c-1.12,1.04-2.49,1.56-4.13,1.56h-70.54v28.35h65.63c1.64,0,3.01,0.56,4.13,1.67
			c1.12,1.12,1.68,2.49,1.68,4.13v20.31c0,1.64-0.56,3.01-1.68,4.13c-1.12,1.12-2.49,1.68-4.13,1.68h-65.63v29.02h72.32
			c1.64,0,3.01,0.56,4.13,1.67c1.12,1.12,1.67,2.49,1.67,4.13v22.1c0,1.64-0.56,2.98-1.67,4.02c-1.12,1.04-2.49,1.56-4.13,1.56
			H201.92C200.43,238.16,199.13,237.6,198.02,236.49z"/>
		<path class="st0" d="M361.97,234.14c-10.12-4.17-17.79-9.67-22.99-16.52c-5.21-6.84-7.96-14.29-8.26-22.32
			c0-1.34,0.48-2.46,1.45-3.35s2.12-1.34,3.46-1.34h29.69c1.79,0,3.24,0.3,4.35,0.89c1.12,0.6,2.34,1.64,3.68,3.12
			c1.93,3.57,4.95,6.51,9.04,8.82c4.09,2.31,9.56,3.46,16.4,3.46c8.04,0,14.21-1.23,18.53-3.68c4.31-2.46,6.47-5.84,6.47-10.16
			c0-3.12-1.12-5.69-3.35-7.7c-2.23-2.01-5.8-3.8-10.71-5.36s-11.98-3.31-21.21-5.24c-18.01-3.57-31.47-9-40.4-16.3
			c-8.93-7.29-13.39-17.71-13.39-31.25c0-9.22,2.57-17.45,7.7-24.67c5.13-7.22,12.42-12.84,21.87-16.85
			c9.45-4.02,20.43-6.03,32.93-6.03c13.09,0,24.44,2.27,34.04,6.81c9.6,4.54,16.96,10.19,22.1,16.96
			c5.14,6.77,7.85,13.43,8.15,19.98c0,1.34-0.45,2.49-1.34,3.46c-0.89,0.97-2.01,1.45-3.35,1.45h-31.25c-3.27,0-5.8-1.34-7.59-4.02
			c-0.89-3.12-3.2-5.76-6.92-7.92c-3.72-2.16-8.34-3.24-13.84-3.24c-6.25,0-11.09,1.12-14.51,3.35c-3.43,2.23-5.13,5.51-5.13,9.82
			c0,4.32,2.23,7.7,6.7,10.16c4.46,2.46,12.8,4.95,25,7.48c13.99,2.53,25.11,5.69,33.37,9.49c8.26,3.79,14.36,8.7,18.31,14.73
			c3.94,6.03,5.92,13.65,5.92,22.88c0,10.12-2.9,18.9-8.71,26.34c-5.8,7.44-13.84,13.13-24.11,17.08
			c-10.27,3.94-22.03,5.92-35.27,5.92C384.37,240.39,372.09,238.31,361.97,234.14z"/>
		<path class="st0" d="M522.8,236.6c-1.12-1.04-1.67-2.38-1.67-4.02V118.29h-39.29c-1.64,0-3.01-0.52-4.13-1.56
			c-1.12-1.04-1.67-2.38-1.67-4.02v-25c0-1.64,0.56-3.01,1.67-4.13c1.12-1.12,2.49-1.67,4.13-1.67h121.21
			c1.64,0,3.01,0.56,4.13,1.67c1.12,1.12,1.67,2.49,1.67,4.13v25c0,1.64-0.56,2.98-1.67,4.02c-1.12,1.04-2.49,1.56-4.13,1.56h-39.29
			v114.29c0,1.64-0.56,2.98-1.67,4.02c-1.12,1.04-2.49,1.56-4.13,1.56h-31.03C525.29,238.16,523.91,237.64,522.8,236.6z"/>
		<path class="st0" d="M630.16,236.49c-1.12-1.12-1.67-2.42-1.67-3.91V87.49c0-1.63,0.56-2.98,1.67-4.02
			c1.12-1.04,2.42-1.56,3.91-1.56h31.92c1.64,0,2.98,0.52,4.02,1.56c1.04,1.04,1.56,2.38,1.56,4.02v145.09
			c0,1.49-0.52,2.79-1.56,3.91c-1.04,1.12-2.38,1.67-4.02,1.67h-31.92C632.58,238.16,631.28,237.6,630.16,236.49z"/>
		<path class="st0" d="M716.66,224.99c-12.2-10.27-18.68-25.37-19.42-45.31c-0.15-4.17-0.22-10.56-0.22-19.2
			c0-8.63,0.07-15.1,0.22-19.42c0.59-19.64,7.1-34.78,19.53-45.42C729.2,85,745.83,79.68,766.66,79.68
			c20.68,0,37.24,5.32,49.67,15.96c12.42,10.64,18.93,25.78,19.53,45.42c0.3,8.63,0.45,15.11,0.45,19.42
			c0,4.46-0.15,10.86-0.45,19.2c-0.74,19.94-7.18,35.04-19.31,45.31c-12.13,10.27-28.76,15.4-49.89,15.4
			C745.53,240.39,728.86,235.26,716.66,224.99z M785.19,199.88c4.61-4.69,7.07-11.87,7.37-21.54c0.3-8.63,0.45-14.81,0.45-18.53
			c0-3.72-0.15-9.74-0.45-18.08c-0.3-9.67-2.75-16.85-7.37-21.54c-4.62-4.69-10.79-7.03-18.53-7.03c-7.89,0-14.14,2.34-18.75,7.03
			c-4.61,4.69-7.07,11.87-7.37,21.54c-0.15,4.17-0.22,10.19-0.22,18.08c0,8.04,0.07,14.21,0.22,18.53
			c0.3,9.67,2.75,16.85,7.37,21.54c4.61,4.69,10.86,7.03,18.75,7.03C774.4,206.91,780.57,204.57,785.19,199.88z M748.36,67.17
			c0-1.19,0.37-2.15,1.12-2.9l19.86-24.33c1.49-1.79,2.79-2.94,3.91-3.46c1.12-0.52,2.57-0.78,4.35-0.78h32.59
			c1.34,0,2.38,0.41,3.12,1.23c0.74,0.82,1.12,1.9,1.12,3.24c0,1.04-0.37,1.94-1.12,2.68L783.4,67.4c-1.49,1.19-2.83,2.05-4.02,2.57
			c-1.19,0.52-2.68,0.78-4.46,0.78h-22.99C749.55,70.75,748.36,69.56,748.36,67.17z"/>
		<path class="st0" d="M863.2,236.49c-1.12-1.12-1.67-2.42-1.67-3.91V87.71c0-1.64,0.52-3.01,1.56-4.13
			c1.04-1.12,2.38-1.67,4.02-1.67h25.23c3.42,0,5.95,1.42,7.59,4.24l52.68,83.26v-81.7c0-1.64,0.52-3.01,1.56-4.13
			c1.04-1.12,2.38-1.67,4.02-1.67h28.35c1.64,0,2.98,0.56,4.02,1.67c1.04,1.12,1.56,2.49,1.56,4.13v144.64
			c0,1.64-0.52,3.01-1.56,4.13c-1.04,1.12-2.38,1.67-4.02,1.67h-25.22c-3.43,0-5.95-1.41-7.59-4.24l-52.46-79.91v78.57
			c0,1.64-0.56,2.98-1.67,4.02c-1.12,1.04-2.49,1.56-4.13,1.56h-28.35C865.62,238.16,864.32,237.6,863.2,236.49z"/>
	</g>
	<g>
		<path class="st2" d="M1095.33,240.39h-35.16c-2.75,0-4.74-0.61-5.97-1.84c-1.23-1.23-1.84-3.22-1.84-5.97V126.02h-31.9
			c-2.75,0-4.74-0.61-5.97-1.84c-1.23-1.23-1.84-3.22-1.84-5.97V91.95c0-2.75,0.61-4.74,1.84-5.97c1.23-1.23,3.22-1.84,5.97-1.84
			h114.58c2.75,0,4.74,0.62,5.97,1.84c1.23,1.23,1.84,3.22,1.84,5.97v26.26c0,2.75-0.62,4.74-1.84,5.97
			c-1.23,1.23-3.22,1.84-5.97,1.84h-31.9v106.55c0,2.75-0.62,4.74-1.84,5.97C1100.07,239.77,1098.08,240.39,1095.33,240.39z"/>
		<path class="st2" d="M1244.85,240.39h-73.13c-2.75,0-4.74-0.61-5.97-1.84c-1.23-1.23-1.84-3.22-1.84-5.97V91.95
			c0-2.75,0.61-4.74,1.84-5.97c1.23-1.23,3.22-1.84,5.97-1.84h73.13c18.08,0,31.5,3.62,40.25,10.85
			c8.75,7.24,13.13,18.37,13.13,33.42v67.71c0,15.05-4.38,26.19-13.13,33.42C1276.35,236.77,1262.93,240.39,1244.85,240.39z
			 M1213.16,125.59v73.78h25.82c3.47,0,6.04-0.87,7.7-2.6c1.66-1.74,2.49-4.41,2.49-8.03v-52.73c0-3.61-0.83-6.26-2.49-7.92
			c-1.67-1.66-4.23-2.5-7.7-2.5H1213.16z"/>
		<path class="st2" d="M1429.74,240.39h-52.95c-18.09,0-31.5-3.61-40.25-10.85c-8.76-7.23-13.13-18.37-13.13-33.42v-67.49
			c0-15.04,4.37-26.22,13.13-33.53c8.75-7.3,22.17-10.96,40.25-10.96h52.95c2.75,0,4.74,0.62,5.97,1.84
			c1.23,1.23,1.84,3.22,1.84,5.97v26.26c0,2.75-0.62,4.74-1.84,5.97c-1.23,1.23-3.22,1.84-5.97,1.84h-43.62
			c-4.49,0-7.81,0.91-9.98,2.71c-2.17,1.81-3.25,4.52-3.25,8.14v51.65c0,3.62,1.08,6.26,3.25,7.92c2.17,1.66,5.5,2.5,9.98,2.5h43.62
			c2.75,0,4.74,0.62,5.97,1.84c1.23,1.23,1.84,3.22,1.84,5.97v25.82c0,2.75-0.62,4.74-1.84,5.97
			C1434.47,239.77,1432.48,240.39,1429.74,240.39z"/>
		<path class="st3" d="M1103.14,162.27v70.31c0,2.74-0.61,4.73-1.83,5.96c-1.24,1.24-3.22,1.85-5.98,1.85h-35.16
			c-2.74,0-4.73-0.61-5.96-1.85c-1.24-1.22-1.85-3.22-1.85-5.96v-70.31H1103.14z"/>
		<path class="st3" d="M1298.23,162.27v33.85c0,15.05-4.38,26.18-13.12,33.42c-8.76,7.24-22.17,10.85-40.27,10.85h-73.13
			c-2.74,0-4.73-0.61-5.96-1.85c-1.24-1.22-1.85-3.22-1.85-5.96v-70.31h49.26v37.11h25.82c3.47,0,6.04-0.87,7.71-2.6
			c1.66-1.74,2.49-4.42,2.49-8.03v-26.48H1298.23z"/>
		<path class="st3" d="M1437.55,206.76v25.82c0,2.74-0.61,4.73-1.83,5.96c-1.24,1.24-3.24,1.85-5.98,1.85h-52.95
			c-18.09,0-31.51-3.61-40.25-10.85c-8.76-7.24-13.14-18.37-13.14-33.42v-33.85h49.48v26.26c0,3.61,1.09,6.25,3.25,7.91
			c2.17,1.68,5.5,2.51,9.98,2.51h43.62c2.74,0,4.73,0.61,5.98,1.83C1436.94,202.02,1437.55,203.99,1437.55,206.76z"/>
	</g>
</g>
<g>
	<g>
		<path class="st0" d="M1511.36,220.86v-4.85v-39.09v-14.65v-58.59c0-10.79-8.74-19.53-19.53-19.53h-31.38
			c-3.36,0-6.09,2.73-6.09,6.09v7.35c0,3.36,2.73,6.09,6.09,6.09h26.49c2.69,0,4.88,2.2,4.88,4.88v24.08c0,2.69-2.2,4.88-4.88,4.88
			h-26.52c-3.35,0-6.07,2.72-6.07,6.07v96.81h56.6c5.35,0,10.01-4.13,10.16-9.48C1521.28,225.38,1516.85,220.86,1511.36,220.86z"/>
		<path class="st1" d="M1569.95,131.32v67.57c0,12-9.58,21.73-21.53,21.97c-12.32,0.25-22.41-10.21-22.41-22.54v-9.19
			c0-6.74-5.47-12.21-12.22-12.21h-2.44v-14.65h2.44c14.84,0,26.86,12.02,26.86,26.85v9.76c0,4.29,3.64,7.69,8.01,7.3
			c3.81-0.35,6.63-3.76,6.63-7.58v-46.71c-8.42-2.17-14.65-9.83-14.65-18.93v-19.53l-9.76-9.76c-2.86-2.85-2.68-7.62,0.52-10.23
			c2.79-2.28,6.92-1.84,9.46,0.7l23.33,23.33C1567.89,121.14,1569.95,126.12,1569.95,131.32z"/>
	</g>
	<g>
		<path class="st0" d="M49.69,224.66c-12.2-10.49-18.68-25.48-19.42-44.98c-0.15-4.17-0.22-10.94-0.22-20.31
			c0-9.38,0.07-16.22,0.22-20.54c0.59-18.75,7.1-33.29,19.53-43.64c12.42-10.34,29.28-15.51,50.56-15.51
			c14.29,0,26.75,2.31,37.39,6.92c10.64,4.61,18.75,10.53,24.33,17.75c5.58,7.22,8.52,14.62,8.82,22.21c0,1.34-0.48,2.49-1.45,3.46
			c-0.97,0.97-2.12,1.45-3.46,1.45h-34.6c-1.49,0-2.65-0.26-3.46-0.78c-0.82-0.52-1.6-1.3-2.34-2.34
			c-1.79-4.17-4.65-7.74-8.59-10.71c-3.95-2.98-9.49-4.46-16.63-4.46c-17.27,0-26.19,8.93-26.79,26.79
			c-0.15,4.17-0.22,10.57-0.22,19.2s0.07,15.11,0.22,19.42c0.59,18.9,9.67,28.35,27.23,28.35c8.63,0,15.48-2.16,20.54-6.47
			c5.06-4.31,7.59-10.86,7.59-19.64v-4.02h-19.87c-1.64,0-3.01-0.56-4.13-1.67c-1.12-1.12-1.68-2.49-1.68-4.13v-17.41
			c0-1.64,0.56-3.01,1.68-4.13c1.11-1.11,2.49-1.67,4.13-1.67h56.7c1.63,0,3.01,0.56,4.13,1.67c1.12,1.12,1.68,2.49,1.68,4.13v25.89
			c0,12.65-2.94,23.55-8.82,32.7c-5.88,9.15-14.17,16.15-24.89,20.98c-10.71,4.84-23.21,7.25-37.5,7.25
			C78.78,240.39,61.89,235.15,49.69,224.66z"/>
		<path class="st0" d="M198.02,236.49c-1.12-1.12-1.67-2.42-1.67-3.91V87.71c0-1.64,0.52-3.01,1.56-4.13
			c1.04-1.12,2.38-1.67,4.02-1.67h105.36c1.64,0,3.01,0.56,4.13,1.67c1.12,1.12,1.68,2.49,1.68,4.13v22.1
			c0,1.64-0.56,2.98-1.68,4.02c-1.12,1.04-2.49,1.56-4.13,1.56h-70.54v28.35h65.63c1.64,0,3.01,0.56,4.13,1.67
			c1.12,1.12,1.68,2.49,1.68,4.13v20.31c0,1.64-0.56,3.01-1.68,4.13c-1.12,1.12-2.49,1.68-4.13,1.68h-65.63v29.02h72.32
			c1.64,0,3.01,0.56,4.13,1.67c1.12,1.12,1.67,2.49,1.67,4.13v22.1c0,1.64-0.56,2.98-1.67,4.02c-1.12,1.04-2.49,1.56-4.13,1.56
			H201.92C200.43,238.16,199.13,237.6,198.02,236.49z"/>
		<path class="st0" d="M361.97,234.14c-10.12-4.17-17.79-9.67-22.99-16.52c-5.21-6.84-7.96-14.29-8.26-22.32
			c0-1.34,0.48-2.46,1.45-3.35s2.12-1.34,3.46-1.34h29.69c1.79,0,3.24,0.3,4.35,0.89c1.12,0.6,2.34,1.64,3.68,3.12
			c1.93,3.57,4.95,6.51,9.04,8.82c4.09,2.31,9.56,3.46,16.4,3.46c8.04,0,14.21-1.23,18.53-3.68c4.31-2.46,6.47-5.84,6.47-10.16
			c0-3.12-1.12-5.69-3.35-7.7c-2.23-2.01-5.8-3.8-10.71-5.36s-11.98-3.31-21.21-5.24c-18.01-3.57-31.47-9-40.4-16.3
			c-8.93-7.29-13.39-17.71-13.39-31.25c0-9.22,2.57-17.45,7.7-24.67c5.13-7.22,12.42-12.84,21.87-16.85
			c9.45-4.02,20.43-6.03,32.93-6.03c13.09,0,24.44,2.27,34.04,6.81c9.6,4.54,16.96,10.19,22.1,16.96
			c5.14,6.77,7.85,13.43,8.15,19.98c0,1.34-0.45,2.49-1.34,3.46c-0.89,0.97-2.01,1.45-3.35,1.45h-31.25c-3.27,0-5.8-1.34-7.59-4.02
			c-0.89-3.12-3.2-5.76-6.92-7.92c-3.72-2.16-8.34-3.24-13.84-3.24c-6.25,0-11.09,1.12-14.51,3.35c-3.43,2.23-5.13,5.51-5.13,9.82
			c0,4.32,2.23,7.7,6.7,10.16c4.46,2.46,12.8,4.95,25,7.48c13.99,2.53,25.11,5.69,33.37,9.49c8.26,3.79,14.36,8.7,18.31,14.73
			c3.94,6.03,5.92,13.65,5.92,22.88c0,10.12-2.9,18.9-8.71,26.34c-5.8,7.44-13.84,13.13-24.11,17.08
			c-10.27,3.94-22.03,5.92-35.27,5.92C384.37,240.39,372.09,238.31,361.97,234.14z"/>
		<path class="st0" d="M522.8,236.6c-1.12-1.04-1.67-2.38-1.67-4.02V118.29h-39.29c-1.64,0-3.01-0.52-4.13-1.56
			c-1.12-1.04-1.67-2.38-1.67-4.02v-25c0-1.64,0.56-3.01,1.67-4.13c1.12-1.12,2.49-1.67,4.13-1.67h121.21
			c1.64,0,3.01,0.56,4.13,1.67c1.12,1.12,1.67,2.49,1.67,4.13v25c0,1.64-0.56,2.98-1.67,4.02c-1.12,1.04-2.49,1.56-4.13,1.56h-39.29
			v114.29c0,1.64-0.56,2.98-1.67,4.02c-1.12,1.04-2.49,1.56-4.13,1.56h-31.03C525.29,238.16,523.91,237.64,522.8,236.6z"/>
		<path class="st0" d="M630.16,236.49c-1.12-1.12-1.67-2.42-1.67-3.91V87.49c0-1.63,0.56-2.98,1.67-4.02
			c1.12-1.04,2.42-1.56,3.91-1.56h31.92c1.64,0,2.98,0.52,4.02,1.56c1.04,1.04,1.56,2.38,1.56,4.02v145.09
			c0,1.49-0.52,2.79-1.56,3.91c-1.04,1.12-2.38,1.67-4.02,1.67h-31.92C632.58,238.16,631.28,237.6,630.16,236.49z"/>
		<path class="st0" d="M716.66,224.99c-12.2-10.27-18.68-25.37-19.42-45.31c-0.15-4.17-0.22-10.56-0.22-19.2
			c0-8.63,0.07-15.1,0.22-19.42c0.59-19.64,7.1-34.78,19.53-45.42C729.2,85,745.83,79.68,766.66,79.68
			c20.68,0,37.24,5.32,49.67,15.96c12.42,10.64,18.93,25.78,19.53,45.42c0.3,8.63,0.45,15.11,0.45,19.42
			c0,4.46-0.15,10.86-0.45,19.2c-0.74,19.94-7.18,35.04-19.31,45.31c-12.13,10.27-28.76,15.4-49.89,15.4
			C745.53,240.39,728.86,235.26,716.66,224.99z M785.19,199.88c4.61-4.69,7.07-11.87,7.37-21.54c0.3-8.63,0.45-14.81,0.45-18.53
			c0-3.72-0.15-9.74-0.45-18.08c-0.3-9.67-2.75-16.85-7.37-21.54c-4.62-4.69-10.79-7.03-18.53-7.03c-7.89,0-14.14,2.34-18.75,7.03
			c-4.61,4.69-7.07,11.87-7.37,21.54c-0.15,4.17-0.22,10.19-0.22,18.08c0,8.04,0.07,14.21,0.22,18.53
			c0.3,9.67,2.75,16.85,7.37,21.54c4.61,4.69,10.86,7.03,18.75,7.03C774.4,206.91,780.57,204.57,785.19,199.88z M748.36,67.17
			c0-1.19,0.37-2.15,1.12-2.9l19.86-24.33c1.49-1.79,2.79-2.94,3.91-3.46c1.12-0.52,2.57-0.78,4.35-0.78h32.59
			c1.34,0,2.38,0.41,3.12,1.23c0.74,0.82,1.12,1.9,1.12,3.24c0,1.04-0.37,1.94-1.12,2.68L783.4,67.4c-1.49,1.19-2.83,2.05-4.02,2.57
			c-1.19,0.52-2.68,0.78-4.46,0.78h-22.99C749.55,70.75,748.36,69.56,748.36,67.17z"/>
		<path class="st0" d="M863.2,236.49c-1.12-1.12-1.67-2.42-1.67-3.91V87.71c0-1.64,0.52-3.01,1.56-4.13
			c1.04-1.12,2.38-1.67,4.02-1.67h25.23c3.42,0,5.95,1.42,7.59,4.24l52.68,83.26v-81.7c0-1.64,0.52-3.01,1.56-4.13
			c1.04-1.12,2.38-1.67,4.02-1.67h28.35c1.64,0,2.98,0.56,4.02,1.67c1.04,1.12,1.56,2.49,1.56,4.13v144.64
			c0,1.64-0.52,3.01-1.56,4.13c-1.04,1.12-2.38,1.67-4.02,1.67h-25.22c-3.43,0-5.95-1.41-7.59-4.24l-52.46-79.91v78.57
			c0,1.64-0.56,2.98-1.67,4.02c-1.12,1.04-2.49,1.56-4.13,1.56h-28.35C865.62,238.16,864.32,237.6,863.2,236.49z"/>
	</g>
	<g>
		<path class="st3" d="M1095.33,240.39h-35.16c-2.75,0-4.74-0.61-5.97-1.84c-1.23-1.23-1.84-3.22-1.84-5.97V126.02h-31.9
			c-2.75,0-4.74-0.61-5.97-1.84c-1.23-1.23-1.84-3.22-1.84-5.97V91.95c0-2.75,0.61-4.74,1.84-5.97c1.23-1.23,3.22-1.84,5.97-1.84
			h114.58c2.75,0,4.74,0.62,5.97,1.84c1.23,1.23,1.84,3.22,1.84,5.97v26.26c0,2.75-0.62,4.74-1.84,5.97
			c-1.23,1.23-3.22,1.84-5.97,1.84h-31.9v106.55c0,2.75-0.62,4.74-1.84,5.97C1100.07,239.77,1098.08,240.39,1095.33,240.39z"/>
		<path class="st3" d="M1244.85,240.39h-73.13c-2.75,0-4.74-0.61-5.97-1.84c-1.23-1.23-1.84-3.22-1.84-5.97V91.95
			c0-2.75,0.61-4.74,1.84-5.97c1.23-1.23,3.22-1.84,5.97-1.84h73.13c18.08,0,31.5,3.62,40.25,10.85
			c8.75,7.24,13.13,18.37,13.13,33.42v67.71c0,15.05-4.38,26.19-13.13,33.42C1276.35,236.77,1262.93,240.39,1244.85,240.39z
			 M1213.16,125.59v73.78h25.82c3.47,0,6.04-0.87,7.7-2.6c1.66-1.74,2.49-4.41,2.49-8.03v-52.73c0-3.61-0.83-6.26-2.49-7.92
			c-1.67-1.66-4.23-2.5-7.7-2.5H1213.16z"/>
		<path class="st3" d="M1429.74,240.39h-52.95c-18.09,0-31.5-3.61-40.25-10.85c-8.76-7.23-13.13-18.37-13.13-33.42v-67.49
			c0-15.04,4.37-26.22,13.13-33.53c8.75-7.3,22.17-10.96,40.25-10.96h52.95c2.75,0,4.74,0.62,5.97,1.84
			c1.23,1.23,1.84,3.22,1.84,5.97v26.26c0,2.75-0.62,4.74-1.84,5.97c-1.23,1.23-3.22,1.84-5.97,1.84h-43.62
			c-4.49,0-7.81,0.91-9.98,2.71c-2.17,1.81-3.25,4.52-3.25,8.14v51.65c0,3.62,1.08,6.26,3.25,7.92c2.17,1.66,5.5,2.5,9.98,2.5h43.62
			c2.75,0,4.74,0.62,5.97,1.84c1.23,1.23,1.84,3.22,1.84,5.97v25.82c0,2.75-0.62,4.74-1.84,5.97
			C1434.47,239.77,1432.48,240.39,1429.74,240.39z"/>
		<path class="st4" d="M1103.14,162.27v70.31c0,2.74-0.61,4.73-1.83,5.96c-1.24,1.24-3.22,1.85-5.98,1.85h-35.16
			c-2.74,0-4.73-0.61-5.96-1.85c-1.24-1.22-1.85-3.22-1.85-5.96v-70.31H1103.14z"/>
		<path class="st4" d="M1298.23,162.27v33.85c0,15.05-4.38,26.18-13.12,33.42c-8.76,7.24-22.17,10.85-40.27,10.85h-73.13
			c-2.74,0-4.73-0.61-5.96-1.85c-1.24-1.22-1.85-3.22-1.85-5.96v-70.31h49.26v37.11h25.82c3.47,0,6.04-0.87,7.71-2.6
			c1.66-1.74,2.49-4.42,2.49-8.03v-26.48H1298.23z"/>
		<path class="st4" d="M1437.55,206.76v25.82c0,2.74-0.61,4.73-1.83,5.96c-1.24,1.24-3.24,1.85-5.98,1.85h-52.95
			c-18.09,0-31.51-3.61-40.25-10.85c-8.76-7.24-13.14-18.37-13.14-33.42v-33.85h49.48v26.26c0,3.61,1.09,6.25,3.25,7.91
			c2.17,1.68,5.5,2.51,9.98,2.51h43.62c2.74,0,4.73,0.61,5.98,1.83C1436.94,202.02,1437.55,203.99,1437.55,206.76z"/>
	</g>
</g>
</svg>
