<?xml version="1.0" encoding="utf-8"?>
<!-- Generator: Adobe Illustrator 27.6.1, SVG Export Plug-In . SVG Version: 6.00 Build 0)  -->
<svg version="1.1" id="Capa_1" xmlns="http://www.w3.org/2000/svg" xmlns:xlink="http://www.w3.org/1999/xlink" x="0px" y="0px"
	 viewBox="0 0 300 300" style="enable-background:new 0 0 300 300;" xml:space="preserve">
<style type="text/css">
	.st0{fill:#76A4B8;}
</style>
<g>
	<path class="st0" d="M212.43,25.71c34.11,0,61.86,27.75,61.86,61.86v124.85c0,34.11-27.75,61.86-61.86,61.86H87.58
		c-34.11,0-61.86-27.75-61.86-61.86V87.57c0-34.11,27.75-61.86,61.86-61.86H212.43 M212.43,5H87.58C41.97,5,5,41.97,5,87.57v124.85
		C5,258.03,41.97,295,87.58,295h124.85c45.6,0,82.57-36.97,82.57-82.57V87.57C295,41.97,258.03,5,212.43,5L212.43,5z"/>
	<g>
		<path class="st0" d="M65.09,184.25v-73.94h20.08v73.94H65.09z"/>
		<path class="st0" d="M134.07,125.64c-4.75,0-8.47,1.95-11.13,5.84c-2.66,3.9-4,9.26-4,16.11c0,14.23,5.41,21.34,16.23,21.34
			c3.27,0,6.44-0.46,9.51-1.37s6.15-2,9.25-3.29v16.89c-6.17,2.73-13.15,4.1-20.94,4.1c-11.16,0-19.71-3.24-25.67-9.71
			c-5.95-6.47-8.92-15.83-8.92-28.07c0-7.66,1.44-14.38,4.33-20.18c2.87-5.8,7.02-10.26,12.44-13.37c5.4-3.13,11.77-4.68,19.09-4.68
			c7.99,0,15.63,1.74,22.91,5.21l-6.12,15.73c-2.73-1.28-5.46-2.36-8.19-3.24C140.14,126.07,137.21,125.64,134.07,125.64z"/>
		<path class="st0" d="M237.54,147.18c0,12.44-3.05,21.9-9.15,28.37s-15.04,9.71-26.8,9.71c-11.6,0-20.49-3.26-26.67-9.76
			c-6.19-6.5-9.29-15.98-9.29-28.42c0-12.31,3.07-21.71,9.22-28.19c6.16-6.49,15.1-9.74,26.83-9.74c11.76,0,20.68,3.22,26.75,9.66
			S237.54,134.71,237.54,147.18z M186.66,147.18c0,14.29,4.98,21.44,14.92,21.44c5.06,0,8.81-1.74,11.26-5.21
			c2.44-3.47,3.66-8.88,3.66-16.23c0-7.38-1.23-12.84-3.72-16.35c-2.47-3.53-6.17-5.29-11.1-5.29
			C191.67,125.54,186.66,132.75,186.66,147.18z"/>
	</g>
</g>
</svg>
