<?xml version="1.0" encoding="utf-8"?>
<!-- Generator: Adobe Illustrator 27.6.1, SVG Export Plug-In . SVG Version: 6.00 Build 0)  -->
<svg version="1.1" id="Capa_1" xmlns="http://www.w3.org/2000/svg" xmlns:xlink="http://www.w3.org/1999/xlink" x="0px" y="0px"
	 viewBox="0 0 1500 650" style="enable-background:new 0 0 1500 650;" xml:space="preserve">
<style type="text/css">
	.st0{fill:#0C475B;}
	.st1{fill:#1B6889;}
	.st2{fill:#C1272D;}
	.st3{fill:#AF2731;}
</style>
<path class="st0" d="M1249.51,548.25v-16.63V397.65v-50.2V146.63c0-36.97-29.97-66.94-66.94-66.94h-107.53
	c-11.53,0-20.88,9.35-20.88,20.88v25.18c0,11.53,9.35,20.88,20.88,20.88h90.8c9.2,0,16.73,7.53,16.73,16.73v82.51
	c0,9.2-7.53,16.73-16.73,16.73h-90.88c-11.49,0-20.8,9.31-20.8,20.8v331.78h193.97c18.34,0,34.31-14.16,34.83-32.5
	C1283.5,563.74,1268.35,548.25,1249.51,548.25z"/>
<path class="st1" d="M1450.32,241.38v231.56c0,41.11-32.84,74.49-73.77,75.29c-42.23,0.85-76.81-34.98-76.81-77.26v-31.49
	c0-23.08-18.74-41.83-41.87-41.83h-8.37v-50.19h8.37c50.86,0,92.07,41.2,92.07,92.02v33.46c0,14.72,12.48,26.35,27.47,25.01
	c13.06-1.21,22.73-12.88,22.73-25.99V311.89c-28.86-7.43-50.19-33.69-50.19-64.87v-66.93l-33.46-33.46
	c-9.8-9.75-9.17-26.13,1.79-35.07c9.57-7.83,23.71-6.31,32.43,2.42l79.94,79.94C1443.25,206.49,1450.32,223.58,1450.32,241.38z"/>
<g>
	<path class="st0" d="M71.42,222.82c-12.2-10.49-18.68-25.48-19.42-44.98c-0.15-4.17-0.22-10.94-0.22-20.31
		c0-9.38,0.07-16.22,0.22-20.54c0.59-18.75,7.1-33.29,19.53-43.64c12.42-10.34,29.28-15.51,50.56-15.51
		c14.29,0,26.75,2.31,37.39,6.92c10.64,4.61,18.75,10.53,24.33,17.75c5.58,7.22,8.52,14.62,8.82,22.21c0,1.34-0.48,2.49-1.45,3.46
		c-0.97,0.97-2.12,1.45-3.46,1.45h-34.6c-1.49,0-2.65-0.26-3.46-0.78c-0.82-0.52-1.6-1.3-2.34-2.34c-1.79-4.17-4.65-7.74-8.59-10.71
		c-3.95-2.98-9.49-4.46-16.63-4.46c-17.27,0-26.19,8.93-26.79,26.79c-0.15,4.17-0.22,10.57-0.22,19.2c0,8.63,0.07,15.11,0.22,19.42
		c0.59,18.9,9.67,28.35,27.23,28.35c8.63,0,15.48-2.16,20.54-6.47c5.06-4.31,7.59-10.86,7.59-19.64v-4.02H130.8
		c-1.64,0-3.01-0.56-4.13-1.67c-1.12-1.12-1.68-2.49-1.68-4.13v-17.41c0-1.64,0.56-3.01,1.68-4.13c1.11-1.11,2.49-1.67,4.13-1.67
		h56.7c1.63,0,3.01,0.56,4.13,1.67c1.12,1.12,1.68,2.49,1.68,4.13v25.89c0,12.65-2.94,23.55-8.82,32.7
		c-5.88,9.15-14.17,16.15-24.89,20.98c-10.71,4.84-23.21,7.25-37.5,7.25C100.52,238.56,83.62,233.31,71.42,222.82z"/>
	<path class="st0" d="M219.75,234.65c-1.12-1.12-1.67-2.42-1.67-3.91V85.88c0-1.64,0.52-3.01,1.56-4.13
		c1.04-1.12,2.38-1.67,4.02-1.67h105.36c1.64,0,3.01,0.56,4.13,1.67c1.12,1.12,1.68,2.49,1.68,4.13v22.1c0,1.64-0.56,2.98-1.68,4.02
		c-1.12,1.04-2.49,1.56-4.13,1.56h-70.54v28.35h65.63c1.64,0,3.01,0.56,4.13,1.67c1.12,1.12,1.68,2.49,1.68,4.13v20.31
		c0,1.64-0.56,3.01-1.68,4.13c-1.12,1.12-2.49,1.68-4.13,1.68h-65.63v29.02h72.32c1.64,0,3.01,0.56,4.13,1.67
		c1.12,1.12,1.67,2.49,1.67,4.13v22.1c0,1.64-0.56,2.98-1.67,4.02c-1.12,1.04-2.49,1.56-4.13,1.56H223.66
		C222.17,236.33,220.87,235.77,219.75,234.65z"/>
	<path class="st0" d="M383.71,232.31c-10.12-4.17-17.79-9.67-22.99-16.52c-5.21-6.84-7.96-14.29-8.26-22.32
		c0-1.34,0.48-2.46,1.45-3.35s2.12-1.34,3.46-1.34h29.69c1.79,0,3.24,0.3,4.35,0.89c1.12,0.6,2.34,1.64,3.68,3.12
		c1.93,3.57,4.95,6.51,9.04,8.82c4.09,2.31,9.56,3.46,16.4,3.46c8.04,0,14.21-1.23,18.53-3.68c4.31-2.46,6.47-5.84,6.47-10.16
		c0-3.12-1.12-5.69-3.35-7.7c-2.23-2.01-5.8-3.8-10.71-5.36c-4.91-1.56-11.98-3.31-21.21-5.24c-18.01-3.57-31.47-9-40.4-16.3
		c-8.93-7.29-13.39-17.71-13.39-31.25c0-9.22,2.57-17.45,7.7-24.67c5.13-7.22,12.42-12.84,21.87-16.85
		c9.45-4.02,20.43-6.03,32.93-6.03c13.09,0,24.44,2.27,34.04,6.81c9.6,4.54,16.96,10.19,22.1,16.96c5.14,6.77,7.85,13.43,8.15,19.98
		c0,1.34-0.45,2.49-1.34,3.46c-0.89,0.97-2.01,1.45-3.35,1.45h-31.25c-3.27,0-5.8-1.34-7.59-4.02c-0.89-3.12-3.2-5.76-6.92-7.92
		c-3.72-2.16-8.34-3.24-13.84-3.24c-6.25,0-11.09,1.12-14.51,3.35c-3.43,2.23-5.13,5.51-5.13,9.82c0,4.32,2.23,7.7,6.7,10.16
		s12.8,4.95,25,7.48c13.99,2.53,25.11,5.69,33.37,9.49c8.26,3.79,14.36,8.7,18.31,14.73c3.94,6.03,5.92,13.65,5.92,22.88
		c0,10.12-2.9,18.9-8.71,26.34c-5.8,7.44-13.84,13.13-24.11,17.08c-10.27,3.94-22.03,5.92-35.27,5.92
		C406.1,238.56,393.82,236.47,383.71,232.31z"/>
	<path class="st0" d="M544.53,234.77c-1.12-1.04-1.67-2.38-1.67-4.02V116.46h-39.29c-1.64,0-3.01-0.52-4.13-1.56
		c-1.12-1.04-1.67-2.38-1.67-4.02v-25c0-1.64,0.56-3.01,1.67-4.13c1.12-1.12,2.49-1.67,4.13-1.67h121.21c1.64,0,3.01,0.56,4.13,1.67
		c1.12,1.12,1.67,2.49,1.67,4.13v25c0,1.64-0.56,2.98-1.67,4.02c-1.12,1.04-2.49,1.56-4.13,1.56h-39.29v114.29
		c0,1.64-0.56,2.98-1.67,4.02c-1.12,1.04-2.49,1.56-4.13,1.56h-31.03C547.02,236.33,545.65,235.81,544.53,234.77z"/>
	<path class="st0" d="M651.9,234.65c-1.12-1.12-1.67-2.42-1.67-3.91V85.65c0-1.63,0.56-2.98,1.67-4.02
		c1.12-1.04,2.42-1.56,3.91-1.56h31.92c1.64,0,2.98,0.52,4.02,1.56c1.04,1.04,1.56,2.38,1.56,4.02v145.09
		c0,1.49-0.52,2.79-1.56,3.91c-1.04,1.12-2.38,1.67-4.02,1.67H655.8C654.32,236.33,653.02,235.77,651.9,234.65z"/>
	<path class="st0" d="M738.39,223.16c-12.2-10.27-18.68-25.37-19.42-45.31c-0.15-4.17-0.22-10.56-0.22-19.2
		c0-8.63,0.07-15.1,0.22-19.42c0.59-19.64,7.1-34.78,19.53-45.42c12.42-10.64,29.05-15.96,49.89-15.96
		c20.68,0,37.24,5.32,49.67,15.96c12.42,10.64,18.93,25.78,19.53,45.42c0.3,8.63,0.45,15.11,0.45,19.42c0,4.46-0.15,10.86-0.45,19.2
		c-0.74,19.94-7.18,35.04-19.31,45.31c-12.13,10.27-28.76,15.4-49.89,15.4C767.26,238.56,750.59,233.43,738.39,223.16z
		 M806.92,198.05c4.61-4.69,7.07-11.87,7.37-21.54c0.3-8.63,0.45-14.81,0.45-18.53c0-3.72-0.15-9.74-0.45-18.08
		c-0.3-9.67-2.75-16.85-7.37-21.54c-4.62-4.69-10.79-7.03-18.53-7.03c-7.89,0-14.14,2.34-18.75,7.03
		c-4.61,4.69-7.07,11.87-7.37,21.54c-0.15,4.17-0.22,10.19-0.22,18.08c0,8.04,0.07,14.21,0.22,18.53c0.3,9.67,2.75,16.85,7.37,21.54
		c4.61,4.69,10.86,7.03,18.75,7.03C796.13,205.08,802.31,202.73,806.92,198.05z M770.09,65.34c0-1.19,0.37-2.15,1.12-2.9
		l19.86-24.33c1.49-1.79,2.79-2.94,3.91-3.46c1.12-0.52,2.57-0.78,4.35-0.78h32.59c1.34,0,2.38,0.41,3.12,1.23
		c0.74,0.82,1.12,1.9,1.12,3.24c0,1.04-0.37,1.94-1.12,2.68l-29.91,24.55c-1.49,1.19-2.83,2.05-4.02,2.57
		c-1.19,0.52-2.68,0.78-4.46,0.78h-22.99C771.28,68.91,770.09,67.73,770.09,65.34z"/>
	<path class="st0" d="M884.93,234.65c-1.12-1.12-1.67-2.42-1.67-3.91V85.88c0-1.64,0.52-3.01,1.56-4.13
		c1.04-1.12,2.38-1.67,4.02-1.67h25.23c3.42,0,5.95,1.42,7.59,4.24l52.68,83.26v-81.7c0-1.64,0.52-3.01,1.56-4.13
		c1.04-1.12,2.38-1.67,4.02-1.67h28.35c1.64,0,2.98,0.56,4.02,1.67c1.04,1.12,1.56,2.49,1.56,4.13v144.64
		c0,1.64-0.52,3.01-1.56,4.13c-1.04,1.12-2.38,1.67-4.02,1.67h-25.22c-3.43,0-5.95-1.41-7.59-4.24l-52.46-79.91v78.57
		c0,1.64-0.56,2.98-1.67,4.02c-1.12,1.04-2.49,1.56-4.13,1.56h-28.35C887.35,236.33,886.05,235.77,884.93,234.65z"/>
</g>
<g>
	<path class="st2" d="M237.81,615.19h-79.72c-6.24,0-10.75-1.39-13.53-4.18c-2.79-2.78-4.18-7.3-4.18-13.53V355.85H68.04
		c-6.24,0-10.75-1.39-13.53-4.18c-2.79-2.79-4.18-7.3-4.18-13.53v-59.54c0-6.23,1.39-10.74,4.18-13.53
		c2.78-2.78,7.3-4.18,13.53-4.18h259.83c6.23,0,10.74,1.4,13.53,4.18c2.78,2.79,4.18,7.3,4.18,13.53v59.54
		c0,6.24-1.4,10.75-4.18,13.53c-2.79,2.79-7.3,4.18-13.53,4.18h-72.34v241.62c0,6.24-1.4,10.75-4.18,13.53
		C248.55,613.8,244.04,615.19,237.81,615.19z"/>
	<path class="st2" d="M576.87,615.19H411.03c-6.23,0-10.75-1.39-13.53-4.18c-2.79-2.78-4.18-7.3-4.18-13.53V278.59
		c0-6.23,1.39-10.74,4.18-13.53c2.78-2.78,7.3-4.18,13.53-4.18h165.84c41.01,0,71.43,8.2,91.28,24.61
		c19.85,16.41,29.77,41.67,29.77,75.79V514.8c0,34.12-9.93,59.38-29.77,75.78C648.3,606.99,617.87,615.19,576.87,615.19z
		 M505.02,354.87v167.31h58.56c7.87,0,13.69-1.97,17.47-5.9c3.77-3.94,5.66-10,5.66-18.21V378.49c0-8.2-1.89-14.19-5.66-17.96
		c-3.78-3.77-9.6-5.66-17.47-5.66H505.02z"/>
	<path class="st2" d="M996.12,615.19H876.05c-41.01,0-71.44-8.2-91.28-24.6C764.92,574.18,755,548.93,755,514.8V361.76
		c0-34.12,9.92-59.46,29.77-76.03c19.85-16.56,50.27-24.85,91.28-24.85h120.07c6.23,0,10.74,1.4,13.53,4.18
		c2.78,2.79,4.18,7.3,4.18,13.53v59.54c0,6.24-1.4,10.75-4.18,13.53c-2.79,2.79-7.3,4.18-13.53,4.18h-98.91
		c-10.17,0-17.72,2.05-22.64,6.15c-4.92,4.11-7.38,10.26-7.38,18.45v117.12c0,8.2,2.46,14.19,7.38,17.96
		c4.92,3.77,12.46,5.66,22.64,5.66h98.91c6.23,0,10.74,1.4,13.53,4.18c2.78,2.79,4.18,7.3,4.18,13.53v58.56
		c0,6.24-1.4,10.75-4.18,13.53C1006.87,613.8,1002.35,615.19,996.12,615.19z"/>
	<path class="st3" d="M255.51,438.05v159.44c0,6.22-1.39,10.74-4.16,13.51c-2.82,2.82-7.29,4.21-13.55,4.21h-79.72
		c-6.22,0-10.74-1.39-13.51-4.21c-2.82-2.77-4.2-7.29-4.2-13.51V438.05H255.51z"/>
	<path class="st3" d="M697.91,438.05v76.77c0,34.13-9.93,59.36-29.75,75.78c-19.86,16.42-50.28,24.6-91.31,24.6H411.02
		c-6.22,0-10.74-1.39-13.51-4.21c-2.82-2.77-4.21-7.29-4.21-13.51V438.05h111.71v84.15h58.56c7.87,0,13.69-1.97,17.49-5.91
		c3.76-3.94,5.64-10.02,5.64-18.21v-60.04H697.91z"/>
	<path class="st3" d="M1013.84,538.93v58.56c0,6.22-1.39,10.74-4.16,13.51c-2.82,2.82-7.34,4.21-13.56,4.21H876.05
		c-41.02,0-71.44-8.19-91.26-24.6C764.93,574.18,755,548.95,755,514.81v-76.77h112.2v59.54c0,8.19,2.46,14.18,7.38,17.94
		c4.92,3.8,12.48,5.68,22.64,5.68h98.91c6.22,0,10.74,1.39,13.56,4.16C1012.45,528.19,1013.84,532.66,1013.84,538.93z"/>
</g>
</svg>
