<?xml version="1.0" encoding="UTF-8"?><svg id="Capa_1" xmlns="http://www.w3.org/2000/svg" viewBox="0 0 522 200"><path d="m198.3006,71.5433h20.1666c5.5228,0,10,4.4772,10,10v47.8863c-7.7456,5.8445-16.7142,10.3284-26.9049,13.4524-10.1916,3.125-20.453,4.6885-30.7786,4.6885-14.8122,0-28.1279-3.1594-39.95-9.4783-11.8211-6.3189-21.0957-15.0829-27.8219-26.2938-6.7262-11.2101-10.0893-23.8794-10.0893-38.0136s3.3631-26.8026,10.0893-38.0136c6.7262-11.2101,16.0669-19.975,28.0266-26.2929,11.955-6.3189,25.4075-9.4783,40.3573-9.4783,12.5001,0,23.8478,2.1085,34.0385,6.3189,8.8808,3.6713,16.5236,8.7867,22.9278,15.3457,1.5629,1.6007,1.4627,4.1917-.1812,5.7091l-15.4463,14.2576c-1.5239,1.4067-3.8911,1.4423-5.4073.0273-9.6643-9.019-21.0992-13.5307-34.301-13.5307-9.1053,0-17.1913,1.9048-24.2551,5.7069-7.0676,3.8058-12.5707,9.1723-16.5105,16.1031-3.9425,6.9299-5.9106,14.8792-5.9106,23.8468,0,8.8347,1.968,16.7142,5.9106,23.6441,3.9398,6.9299,9.4085,12.3317,16.4082,16.2045,6.9969,3.8728,14.9815,5.8092,23.9501,5.8092,9.5099,0,18.0702-2.0387,25.6819-6.1152v-41.7841Z" fill="#1c5c7f" stroke-width="0"/><path d="m521.7114,12.4175c-.0159-5.5117-4.4883-9.9715-10-9.9715h-17.1372l-52.5876,88.6639L391.4995,7.2866c-1.8091-3.0038-5.0596-4.8406-8.5662-4.8406h-135.9954c-5.5228,0-10,4.4772-10,10v12.9049c0,2.2091,1.7909,4,4,4h41.657v111.7735c0,2.2091,1.7909,4,4,4h25.02c2.2091,0,4-1.7909,4-4V29.3509h45.657v111.7735c0,2.2091,1.7909,4,4,4h22.9812c2.2091,0,4-1.7909,4-4V61.3517l38.8625,63.8869c1.8143,2.9825,5.0525,4.803,8.5435,4.803h3.5729c3.5248,0,6.7892-1.8556,8.5924-4.8842l39.0808-65.6397.1941,81.6163c.0052,2.2054,1.7946,3.9905,4,3.9905h22.9008c2.2135,0,4.0061-1.7977,3.9998-4.0112l-.2886-128.6957Z" fill="#15455f" stroke-width="0"/><rect x="0" y="2.4461" width="80.837" height="142.6535" rx="9.5102" ry="9.5102" fill="#0e2e40" stroke-width="0"/><rect x="7.6082" y="17.0844" width="65.6206" height="104.6126" rx="1.902" ry="1.902" fill="#c2e6fa" stroke-width="0"/><rect x="24.1152" y="6.788" width="32.6065" height="5.7061" rx="2.8531" ry="2.8531" fill="#fff" stroke-width="0"/><circle cx="40.4185" cy="133.0838" r="5.7061" fill="#fff" stroke-width="0"/><path d="m28.6876,39.1241c3.4243-1.8431,7.3439-2.7664,11.7578-2.7664,6.3997,0,11.9427,2.1871,16.6276,6.5591.735.6859,1.8825.6686,2.6212-.0132l7.4877-6.9114c.7969-.7356.8455-1.9916.0878-2.7675-3.1045-3.1795-6.8093-5.6592-11.1143-7.4389-4.94-2.041-10.4409-3.0631-16.5003-3.0631-7.2469,0-13.7681,1.5316-19.5634,4.5947-5.1744,2.7335-9.3303,6.4185-12.4835,11.0411v40.2653c3.1469,4.622,7.2706,8.3061,12.3843,11.0396,5.7308,3.0631,12.1857,4.5947,19.3659,4.5947,5.0054,0,9.9796-.7579,14.92-2.2728,4.94-1.5144,9.2875-3.688,13.0422-6.5211v-23.213c0-2.6772-2.1703-4.8475-4.8475-4.8475h-9.7758v20.2549c-3.6898,1.9761-7.8394,2.9644-12.4494,2.9644-4.3475,0-8.2181-.9387-11.6099-2.816-3.3931-1.8773-6.0441-4.4958-7.9539-7.8552-1.9112-3.3593-2.8652-7.1789-2.8652-11.4615,0-4.3471.954-8.2006,2.8652-11.5599,1.9098-3.3597,4.5775-5.9611,8.0035-7.806Z" fill="#ebf7fd" stroke-width="0"/><path d="m60.2046,99.7464c-.0022-.7669-.6245-1.3874-1.3914-1.3874h-2.3845l-7.317,12.3367-7.0247-11.6632c-.2517-.418-.704-.6735-1.1919-.6735h-18.9223c-.7685,0-1.3914.623-1.3914,1.3914v1.7956c0,.3074.2492.5566.5566.5566h5.7961v15.5521c0,.3074.2492.5566.5566.5566h3.4813c.3074,0,.5566-.2492.5566-.5566v-15.5521h6.3527v15.5521c0,.3074.2492.5566.5566.5566h3.1976c.3074,0,.5566-.2492.5566-.5566v-11.0996l5.8138,9.5575h2.0703l5.8423-9.8127.027,11.3561c.0007.3069.2497.5552.5566.5552h3.1974c.308,0,.5574-.2502.5566-.5582l-.0511-17.9067Z" fill="#ebf7fd" stroke-width="0"/><rect x="0" y="162" width="522" height="38" rx="4" ry="4" fill="#b70009" stroke-width="0"/><path d="m42.688,179.2c-.1289-.4492-.3105-.8477-.5439-1.1953-.2344-.3477-.5186-.6436-.8545-.8867s-.7168-.4297-1.1445-.5586-.9004-.1943-1.418-.1943c-.9658,0-1.8135.2402-2.543.7207s-1.2969,1.1768-1.7031,2.0908-.6094,2.0303-.6094,3.3477.1992,2.4375.5996,3.3604c.4004.9238.9668,1.627,1.6992,2.1094.7324.4834,1.5977.7256,2.5938.7256.9053,0,1.6797-.1621,2.3223-.4854.6436-.3232,1.1357-.7803,1.4775-1.3711s.5127-1.2891.5127-2.0957l.8125.1201h-4.875v-3.0098h7.9121v2.3818c0,1.6621-.3506,3.0889-1.0527,4.2793-.7012,1.1914-1.668,2.1084-2.8984,2.752-1.2314.6426-2.6406.9648-4.2285.9648-1.7734,0-3.3301-.3926-4.6719-1.1777-1.3418-.7842-2.3867-1.9014-3.1348-3.3516-.748-1.4492-1.1221-3.1709-1.1221-5.166,0-1.5322.2236-2.9004.6689-4.1035.4473-1.2031,1.0723-2.2236,1.8789-3.0605s1.7461-1.4746,2.8164-1.9111c1.0713-.4375,2.2314-.6562,3.4805-.6562,1.0713,0,2.0684.1562,2.9922.4668.9229.3105,1.7432.749,2.4609,1.3154.7168.5664,1.3027,1.2393,1.7578,2.0176.4561.7783.748,1.6357.877,2.5713h-4.0625Z" fill="#fff" stroke-width="0"/><path d="m52.5278,191.9969v-18.9092h12.7402v3.2959h-8.7432v4.5059h8.0889v3.2959h-8.0889v4.5156h8.7803v3.2959h-12.7773Z" fill="#fff" stroke-width="0"/><path d="m81.312,178.5262c-.0732-.7451-.3916-1.3232-.9512-1.7363-.5596-.4121-1.3203-.6182-2.2803-.6182-.6523,0-1.2031.0908-1.6523.2725s-.793.4326-1.0293.752c-.2383.3203-.3555.6836-.3555,1.0898-.0137.3389.0586.6338.2168.8867.1562.252.373.4688.6504.6504s.5977.3389.9609.4707c.3623.1328.75.2451,1.1621.3369l1.6992.4062c.8242.1855,1.582.4316,2.2715.7393s1.2871.6865,1.791,1.1357c.5049.4492.8965.9785,1.1777,1.5879.2793.6094.4229,1.3076.4297,2.0957-.0068,1.1572-.3008,2.1592-.8828,3.0059-.582.8457-1.418,1.502-2.5117,1.9658-1.0918.4648-2.4082.6973-3.9463.6973-1.5264,0-2.8545-.2334-3.9834-.7012-1.1309-.4678-2.0098-1.1621-2.6406-2.082-.6318-.9209-.9629-2.0605-.9932-3.4209h3.8682c.043.6338.2266,1.1621.5498,1.583.3232.4219.7568.7393,1.3018.9512s1.1621.3184,1.8516.3184c.6768,0,1.2656-.0986,1.7676-.2949.502-.1973.8906-.4717,1.168-.8223s.416-.7539.416-1.209c0-.4248-.125-.7822-.375-1.0713-.248-.2891-.6113-.5352-1.0889-.7383s-1.0596-.3887-1.749-.5547l-2.0596-.5166c-1.5947-.3877-2.8525-.9941-3.7764-1.8193-.9238-.8242-1.3818-1.9355-1.375-3.333-.0068-1.1445.2988-2.1445.918-3.001.6191-.8555,1.4697-1.5234,2.5527-2.0029,1.084-.4805,2.3145-.7207,3.6934-.7207,1.4043,0,2.6299.2402,3.6797.7207,1.0488.4795,1.8662,1.1475,2.4512,2.0029.584.8564.8867,1.8467.9043,2.9736h-3.8311Z" fill="#fff" stroke-width="0"/><path d="m89.9595,176.3836v-3.2959h15.5293v3.2959h-5.7891v15.6133h-3.9512v-15.6133h-5.7891Z" fill="#fff" stroke-width="0"/><path d="m114.6528,173.0877v18.9092h-3.9971v-18.9092h3.9971Z" fill="#fff" stroke-width="0"/><path d="m137.9263,182.5428c0,2.0615-.3896,3.8164-1.168,5.2627-.7793,1.4463-1.8379,2.5498-3.1758,3.3096-1.3398.7607-2.8428,1.1406-4.5107,1.1406-1.6807,0-3.1885-.3818-4.5244-1.1455-1.3359-.7627-2.3906-1.8682-3.166-3.3145-.7764-1.4463-1.1641-3.1973-1.1641-5.2529,0-2.0625.3877-3.8164,1.1641-5.2637.7754-1.4463,1.8301-2.5488,3.166-3.3096,1.3359-.7598,2.8438-1.1406,4.5244-1.1406,1.668,0,3.1709.3809,4.5107,1.1406,1.3379.7607,2.3965,1.8633,3.1758,3.3096.7783,1.4473,1.168,3.2012,1.168,5.2637Zm-4.0527,0c0-1.3359-.1992-2.4629-.5957-3.3799-.3975-.917-.9561-1.6123-1.6758-2.0869-.7207-.4736-1.5645-.7109-2.5303-.7109s-1.8096.2373-2.5303.7109c-.7197.4746-1.2783,1.1699-1.6758,2.0869-.3965.917-.5957,2.0439-.5957,3.3799,0,1.335.1992,2.4619.5957,3.3789.3975.917.9561,1.6123,1.6758,2.0869.7207.4736,1.5645.7109,2.5303.7109s1.8096-.2373,2.5303-.7109c.7197-.4746,1.2783-1.1699,1.6758-2.0869.3965-.917.5957-2.0439.5957-3.3789Zm-6.2148-11.2832l1.958-4.2012h3.6377l-2.8164,4.2012h-2.7793Z" fill="#fff" stroke-width="0"/><path d="m159.2964,173.0877v18.9092h-3.4531l-8.2266-11.9014h-.1387v11.9014h-3.9971v-18.9092h3.5078l8.1621,11.8926h.166v-11.8926h3.9795Z" fill="#fff" stroke-width="0"/><path d="m180.5239,191.9969h-6.7031v-18.9092h6.7588c1.9023,0,3.54.377,4.9121,1.1309s2.4297,1.8359,3.1709,3.2461c.7422,1.4092,1.1133,3.0957,1.1133,5.0596,0,1.9697-.3711,3.6621-1.1133,5.0781-.7412,1.415-1.8027,2.502-3.1846,3.2588s-3.0332,1.1357-4.9541,1.1357Zm-2.7051-3.4258h2.5391c1.1816,0,2.1777-.21,2.9873-.6318s1.4189-1.0771,1.8281-1.9668.6143-2.0391.6143-3.4482c0-1.3975-.2051-2.5391-.6143-3.4258s-1.0176-1.5391-1.8232-1.957c-.8066-.4189-1.8008-.6279-2.9824-.6279h-2.5488v12.0576Z" fill="#fff" stroke-width="0"/><path d="m195.3306,191.9969v-18.9092h12.7402v3.2959h-8.7432v4.5059h8.0889v3.2959h-8.0889v4.5156h8.7803v3.2959h-12.7773Z" fill="#fff" stroke-width="0"/><path d="m221.7661,176.3836v-3.2959h15.5293v3.2959h-5.7891v15.6133h-3.9512v-15.6133h-5.7891Z" fill="#fff" stroke-width="0"/><path d="m242.4634,191.9969v-18.9092h12.7402v3.2959h-8.7432v4.5059h8.0889v3.2959h-8.0889v4.5156h8.7803v3.2959h-12.7773Z" fill="#fff" stroke-width="0"/><path d="m260.9888,191.9969v-18.9092h3.998v15.6133h8.1074v3.2959h-12.1055Z" fill="#fff" stroke-width="0"/><path d="m278.3433,191.9969v-18.9092h12.7412v3.2959h-8.7441v4.5059h8.0889v3.2959h-8.0889v4.5156h8.7812v3.2959h-12.7783Z" fill="#fff" stroke-width="0"/><path d="m296.8696,191.9969v-18.9092h12.5205v3.2959h-8.5225v4.5059h7.6914v3.2959h-7.6914v7.8115h-3.998Z" fill="#fff" stroke-width="0"/><path d="m332.0532,182.5428c0,2.0615-.3896,3.8164-1.168,5.2627-.7793,1.4463-1.8379,2.5498-3.1758,3.3096-1.3398.7607-2.8428,1.1406-4.5107,1.1406-1.6807,0-3.1885-.3818-4.5244-1.1455-1.3359-.7627-2.3906-1.8682-3.166-3.3145-.7764-1.4463-1.1641-3.1973-1.1641-5.2529,0-2.0625.3877-3.8164,1.1641-5.2637.7754-1.4463,1.8301-2.5488,3.166-3.3096,1.3359-.7598,2.8438-1.1406,4.5244-1.1406,1.668,0,3.1709.3809,4.5107,1.1406,1.3379.7607,2.3965,1.8633,3.1758,3.3096.7783,1.4473,1.168,3.2012,1.168,5.2637Zm-4.0527,0c0-1.3359-.1992-2.4629-.5957-3.3799-.3975-.917-.9561-1.6123-1.6758-2.0869-.7207-.4736-1.5645-.7109-2.5303-.7109s-1.8096.2373-2.5303.7109c-.7197.4746-1.2783,1.1699-1.6758,2.0869-.3965.917-.5957,2.0439-.5957,3.3799,0,1.335.1992,2.4619.5957,3.3789.3975.917.9561,1.6123,1.6758,2.0869.7207.4736,1.5645.7109,2.5303.7109s1.8096-.2373,2.5303-.7109c.7197-.4746,1.2783-1.1699,1.6758-2.0869.3965-.917.5957-2.0439.5957-3.3789Z" fill="#fff" stroke-width="0"/><path d="m353.4233,173.0877v18.9092h-3.4531l-8.2266-11.9014h-.1387v11.9014h-3.9971v-18.9092h3.5078l8.1621,11.8926h.166v-11.8926h3.9795Z" fill="#fff" stroke-width="0"/><path d="m363.3169,173.0877v18.9092h-3.998v-18.9092h3.998Zm-3.3984-1.8281l1.958-4.2012h3.6377l-2.8164,4.2012h-2.7793Z" fill="#fff" stroke-width="0"/><path d="m372.4722,191.9969h-4.2842l6.5273-18.9092h5.1523l6.5186,18.9092h-4.2842l-4.7363-14.5879h-.1484l-4.7451,14.5879Zm-.2686-7.4326h10.1201v3.1211h-10.1201v-3.1211Z" fill="#fff" stroke-width="0"/><path d="m399.8872,173.0877h4.9297l5.207,12.7051h.2227l5.207-12.7051h4.9297v18.9092h-3.877v-12.3076h-.1572l-4.8936,12.2148h-2.6406l-4.8936-12.2607h-.1572v12.3535h-3.877v-18.9092Z" fill="#fff" stroke-width="0"/><path d="m443.647,182.5428c0,2.0615-.3896,3.8164-1.168,5.2627-.7793,1.4463-1.8379,2.5498-3.1758,3.3096-1.3398.7607-2.8428,1.1406-4.5107,1.1406-1.6807,0-3.1885-.3818-4.5244-1.1455-1.3359-.7627-2.3906-1.8682-3.166-3.3145-.7764-1.4463-1.1641-3.1973-1.1641-5.2529,0-2.0625.3877-3.8164,1.1641-5.2637.7754-1.4463,1.8301-2.5488,3.166-3.3096,1.3359-.7598,2.8438-1.1406,4.5244-1.1406,1.668,0,3.1709.3809,4.5107,1.1406,1.3379.7607,2.3965,1.8633,3.1758,3.3096.7783,1.4473,1.168,3.2012,1.168,5.2637Zm-4.0527,0c0-1.3359-.1992-2.4629-.5957-3.3799-.3975-.917-.9561-1.6123-1.6758-2.0869-.7207-.4736-1.5645-.7109-2.5303-.7109s-1.8096.2373-2.5303.7109c-.7197.4746-1.2783,1.1699-1.6758,2.0869-.3965.917-.5957,2.0439-.5957,3.3799,0,1.335.1992,2.4619.5957,3.3789.3975.917.9561,1.6123,1.6758,2.0869.7207.4736,1.5645.7109,2.5303.7109s1.8096-.2373,2.5303-.7109c.7197-.4746,1.2783-1.1699,1.6758-2.0869.3965-.917.5957-2.0439.5957-3.3789Zm-6.2148-11.2832l1.958-4.2012h3.6377l-2.8164,4.2012h-2.7793Z" fill="#fff" stroke-width="0"/><path d="m451.5552,173.0877l4.5703,14.3662h.1758l4.5791-14.3662h4.4326l-6.5195,18.9092h-5.1514l-6.5283-18.9092h4.4414Z" fill="#fff" stroke-width="0"/><path d="m474.1811,173.0877v18.9092h-3.9971v-18.9092h3.9971Z" fill="#fff" stroke-width="0"/><path d="m480.0776,191.9969v-18.9092h3.9971v15.6133h8.1074v3.2959h-12.1045Z" fill="#fff" stroke-width="0"/></svg>