<?xml version="1.0" encoding="utf-8"?>
<!-- Generator: Adobe Illustrator 27.6.1, SVG Export Plug-In . SVG Version: 6.00 Build 0)  -->
<svg version="1.1" xmlns="http://www.w3.org/2000/svg" xmlns:xlink="http://www.w3.org/1999/xlink" x="0px" y="0px"
	 viewBox="0 0 400 400" style="enable-background:new 0 0 400 400;" xml:space="preserve">
<style type="text/css">
	.st0{fill:#CD5257;}
	.st1{fill:#76A4B8;}
</style>
<g id="Bases">
</g>
<g id="Capa_2">
	<path class="st0" d="M280.71,67.3c3.17,0,5.77,2.59,5.77,5.77v11.53H113.52V73.06c0-3.17,2.59-5.77,5.77-5.77H280.71z
		 M286.48,119.18v69.18c0,3.17-2.59,5.77-5.77,5.77H119.29c-3.17,0-5.77-2.59-5.77-5.77v-69.18H286.48z M119.29,50
		c-12.72,0-23.06,10.34-23.06,23.06v115.3c0,12.72,10.34,23.06,23.06,23.06h161.42c12.72,0,23.06-10.34,23.06-23.06V73.06
		c0-12.72-10.34-23.06-23.06-23.06H119.29z M139.47,159.54c-4.79,0-8.65,3.86-8.65,8.65c0,4.79,3.86,8.65,8.65,8.65h17.3
		c4.79,0,8.65-3.86,8.65-8.65c0-4.79-3.86-8.65-8.65-8.65H139.47z M185.59,159.54c-4.79,0-8.65,3.86-8.65,8.65
		c0,4.79,3.86,8.65,8.65,8.65h40.36c4.79,0,8.65-3.86,8.65-8.65c0-4.79-3.86-8.65-8.65-8.65H185.59z M352.97,282.55
		c10.02-7.38,12.16-21.45,4.79-31.47c-7.38-10.02-21.45-12.16-31.47-4.79l-67.39,49.66h-67.9c-4.95,0-9.01-4.05-9.01-9.01
		c0-4.95,4.05-9.01,9.01-9.01H200h36.03c9.97,0,18.02-8.05,18.02-18.02c0-9.97-8.05-18.02-18.02-18.02H200h-9.01h-44.08
		c-16.38,0-32.26,5.57-45.04,15.76l-25.28,20.27H55.87c-9.97,0-18.02,8.05-18.02,18.02v36.03c0,9.97,8.05,18.02,18.02,18.02h90.08
		h90.36c16.33,0,32.26-5.24,45.43-14.92l71.28-52.53H352.97z M146.85,277.88c0.08,0.13,0.04,0.31-0.09,0.39
		c-0.13,0.08-0.31,0.04-0.39-0.09c-0.04-0.07-0.05-0.16-0.03-0.24c-0.08-0.13-0.04-0.31,0.09-0.39c0.13-0.08,0.31-0.04,0.39,0.09
		C146.87,277.71,146.88,277.8,146.85,277.88z"/>
</g>
<g id="Capa_4">
</g>
<g id="Capa_3">
</g>
<g id="Capa_5">
</g>
<g id="Capa_6">
</g>
</svg>
