<?xml version="1.0" encoding="utf-8"?>
<!-- Generator: Adobe Illustrator 27.6.1, SVG Export Plug-In . SVG Version: 6.00 Build 0)  -->
<svg version="1.1" xmlns="http://www.w3.org/2000/svg" xmlns:xlink="http://www.w3.org/1999/xlink" x="0px" y="0px"
	 viewBox="0 0 400 400" style="enable-background:new 0 0 400 400;" xml:space="preserve">
<style type="text/css">
	.st0{fill:#CD5257;}
	.st1{fill:#76A4B8;}
</style>
<g id="Bases">
</g>
<g id="Capa_2">
</g>
<g id="Capa_4">
</g>
<g id="Capa_3">
</g>
<g id="Capa_5">
</g>
<g id="Capa_6">
	<path class="st0" d="M275.86,50H68.28C51.9,50,38.63,63.28,38.63,79.65v148.27c0,16.38,13.28,29.65,29.65,29.65h89.67
		c6.14,0,11.12-4.98,11.12-11.12v0c0-6.14-4.98-11.12-11.12-11.12H68.28c-4.08,0-7.41-3.34-7.41-7.41v-88.96h222.41v7.99
		c0,6.03,4.86,10.92,10.88,10.98c0.09,0,0.19,0,0.29,0c6.1,0.05,11.07-4.88,11.07-10.98v-67.3C305.52,63.28,292.24,50,275.86,50z
		 M283.28,94.48H60.87V79.65c0-4.08,3.34-7.41,7.41-7.41h207.58c4.08,0,7.41,3.34,7.41,7.41V94.48z M94.23,190.86
		c-6.16,0-11.12,4.96-11.12,11.12c0,6.16,4.96,11.12,11.12,11.12h22.24c6.16,0,11.12-4.96,11.12-11.12
		c0-6.16-4.96-11.12-11.12-11.12H94.23z M153.54,190.86c-6.16,0-11.12,4.96-11.12,11.12c0,6.16,4.96,11.12,11.12,11.12h22.88
		c6.16,0,11.12-4.96,11.12-11.12c0-6.16-4.96-11.12-11.12-11.12H153.54z M272.17,350c49.26,0,89.2-39.94,89.2-89.2
		s-39.94-89.2-89.2-89.2s-89.2,39.94-89.2,89.2S222.91,350,272.17,350z M243.95,232.58c3.28-3.28,8.57-3.28,11.81,0l16.38,16.38
		l16.38-16.38c3.28-3.28,8.57-3.28,11.81,0c3.24,3.28,3.28,8.57,0,11.81l-16.38,16.38l16.38,16.38c3.28,3.28,3.28,8.57,0,11.81
		s-8.57,3.28-11.81,0l-16.38-16.38l-16.38,16.38c-3.28,3.28-8.57,3.28-11.81,0c-3.24-3.28-3.28-8.57,0-11.81l16.38-16.38
		l-16.38-16.38C240.68,241.11,240.68,235.82,243.95,232.58z"/>
</g>
</svg>
