<?xml version="1.0" encoding="utf-8"?>
<!-- Generator: Adobe Illustrator 27.6.1, SVG Export Plug-In . SVG Version: 6.00 Build 0)  -->
<svg version="1.1" xmlns="http://www.w3.org/2000/svg" xmlns:xlink="http://www.w3.org/1999/xlink" x="0px" y="0px"
	 viewBox="0 0 400 400" style="enable-background:new 0 0 400 400;" xml:space="preserve">
<style type="text/css">
	.st0{fill:#CD5257;}
	.st1{fill:#76A4B8;}
</style>
<g id="Bases">
</g>
<g id="Capa_2">
</g>
<g id="Capa_4">
</g>
<g id="Capa_3">
	<path class="st1" d="M276.28,50H68.08c-16.43,0-29.74,13.32-29.74,29.74v148.72c0,16.43,13.32,29.74,29.74,29.74h135.21
		c6.16,0,11.15-4.99,11.15-11.15v0c0-6.16-4.99-11.15-11.15-11.15H68.08c-4.09,0-7.44-3.35-7.44-7.44v-89.23h223.07v8.01
		c0,6.04,4.87,10.96,10.91,11.01c0.1,0,0.19,0,0.29,0c6.12,0.05,11.11-4.89,11.11-11.01v-67.5C306.02,63.32,292.7,50,276.28,50z
		 M283.71,94.61H60.64V79.74c0-4.09,3.35-7.44,7.44-7.44h208.2c4.09,0,7.44,3.35,7.44,7.44V94.61z M250.13,171.54
		c-12.3,0-22.31,10-22.31,22.31v133.84c0,12.3,10,22.31,22.31,22.31h89.23c12.3,0,22.31-10,22.31-22.31V227.31h-44.61
		c-6.17,0-11.15-4.98-11.15-11.15v-44.61H250.13z M317.05,171.54v44.61h44.61L317.05,171.54z M303.11,252.41v35.59l10.81-10.81
		c3.28-3.28,8.57-3.28,11.82,0c3.24,3.28,3.28,8.57,0,11.82l-25.1,25.1c-3.28,3.28-8.57,3.28-11.82,0l-25.1-25.1
		c-3.28-3.28-3.28-8.57,0-11.82c3.28-3.24,8.57-3.28,11.82,0l10.81,10.81v-35.59c0-4.64,3.73-8.37,8.37-8.37s8.37,3.73,8.37,8.37
		H303.11z M94.1,191.28c-6.18,0-11.15,4.97-11.15,11.15c0,6.18,4.97,11.15,11.15,11.15h22.31c6.18,0,11.15-4.97,11.15-11.15
		c0-6.18-4.97-11.15-11.15-11.15H94.1z M153.59,191.28c-6.18,0-11.15,4.97-11.15,11.15c0,6.18,4.97,11.15,11.15,11.15h52.05
		c6.18,0,11.15-4.97,11.15-11.15c0-6.18-4.97-11.15-11.15-11.15H153.59z"/>
</g>
<g id="Capa_5">
</g>
<g id="Capa_6">
</g>
</svg>
