<?xml version="1.0" encoding="utf-8"?>
<!-- Generator: Adobe Illustrator 27.9.0, SVG Export Plug-In . SVG Version: 6.00 Build 0)  -->
<svg version="1.1" xmlns="http://www.w3.org/2000/svg" xmlns:xlink="http://www.w3.org/1999/xlink" x="0px" y="0px"
	 viewBox="0 0 400 400" style="enable-background:new 0 0 400 400;" xml:space="preserve">
<style type="text/css">
	.st0{fill:#0C475B;}
	.st1{fill:#CD5257;}
	.st2{fill:#FFFF00;}
	.st3{fill:#F7931E;}
	.st4{fill:#76A4B8;}
</style>
<g id="Bases">
</g>
<g id="Capa_2">
</g>
<g id="Capa_4">
	<path class="st1" d="M274.84,50H66.64C50.21,50,36.9,63.32,36.9,79.74v148.72c0,16.43,13.32,29.74,29.74,29.74h85.21
		c6.16,0,11.15-4.99,11.15-11.15v0c0-6.16-4.99-11.15-11.15-11.15H66.64c-4.09,0-7.44-3.35-7.44-7.44v-89.23h223.07v28.01
		c0,6.04,4.87,10.96,10.91,11.01l0.29,0c6.12,0.05,11.11-4.89,11.11-11.01v-87.5C304.58,63.32,291.27,50,274.84,50z M282.28,94.61
		H59.2V79.74c0-4.09,3.35-7.44,7.44-7.44h208.2c4.09,0,7.44,3.35,7.44,7.44V94.61z M92.67,191.28c-6.18,0-11.15,4.97-11.15,11.15
		c0,6.18,4.97,11.15,11.15,11.15h22.31c6.18,0,11.15-4.97,11.15-11.15c0-6.18-4.97-11.15-11.15-11.15H92.67z M163.33,202.43
		c0,6.16-4.99,11.15-11.15,11.15c-6.16,0-11.15-4.99-11.15-11.15c0-6.16,4.99-11.15,11.15-11.15
		C158.34,191.28,163.33,196.27,163.33,202.43z M306.1,227.31h-44.61c-6.17,0-11.15-4.98-11.15-11.15v-44.61h-55.77
		c-12.3,0-22.31,10-22.31,22.31v133.84c0,12.3,10,22.31,22.31,22.31h89.23c12.3,0,22.31-10,22.31-22.31v-14.91l-2.84,2.85
		c-2.77,2.77-6.25,4.73-10.08,5.69l-20.9,5.22c-1.3,0.33-2.63,0.5-3.97,0.5c-0.16,0-0.32-0.02-0.47-0.02h-11.82
		c-2.13,0-4.04-1.19-4.98-3.07l-3.07-6.17c-0.59-1.19-1.78-1.92-3.07-1.92c-1.29,0-2.51,0.73-3.07,1.92l-3.07,6.17
		c-1.01,2.06-3.21,3.28-5.47,3.07c-2.27-0.21-4.22-1.78-4.84-3.94l-5.89-19.41l-3.42,11.43c-2.13,7.08-8.64,11.92-16.03,11.92h-2.86
		c-3.07,0-5.58-2.51-5.58-5.58s2.51-5.58,5.58-5.58h2.86c2.47,0,4.64-1.6,5.33-3.97l5.19-17.25c1.19-3.94,4.81-6.66,8.92-6.66
		s7.74,2.72,8.92,6.66l4.04,13.45c2.58-2.16,5.86-3.38,9.34-3.38c2.85,0,5.57,0.84,7.88,2.32l5.21-20.87
		c0.94-3.83,2.91-7.32,5.7-10.11l42.44-42.48V227.31z M354.01,220.26c-5.44-5.44-14.26-5.44-19.73,0l-10.25,10.25l24.75,24.75
		l10.25-10.25c5.44-5.44,5.44-14.26,0-19.73L354.01,220.26L354.01,220.26z M271.09,283.46c-1.43,1.43-2.44,3.21-2.93,5.19
		l-5.23,20.95c-0.49,1.92,0.07,3.9,1.46,5.3c1.39,1.39,3.38,1.95,5.3,1.46l20.95-5.23c1.95-0.49,3.76-1.5,5.19-2.93l45.03-45.07
		l-24.75-24.75L271.09,283.46z M261.6,171.57v44.61h44.61L261.6,171.57z"/>
</g>
<g id="Capa_3">
</g>
<g id="Capa_5">
</g>
<g id="Capa_6">
</g>
</svg>
