<?xml version="1.0" encoding="utf-8"?>
<!-- Generator: Adobe Illustrator 27.6.1, SVG Export Plug-In . SVG Version: 6.00 Build 0)  -->
<svg version="1.1" xmlns="http://www.w3.org/2000/svg" xmlns:xlink="http://www.w3.org/1999/xlink" x="0px" y="0px"
	 viewBox="0 0 400 400" style="enable-background:new 0 0 400 400;" xml:space="preserve">
<style type="text/css">
	.st0{fill:#CD5257;}
	.st1{fill:#76A4B8;}
</style>
<g id="Bases">
</g>
<g id="Capa_2">
</g>
<g id="Capa_4">
</g>
<g id="Capa_3">
</g>
<g id="Capa_5">
	<path class="st1" d="M280.79,205.72c3.17,0,5.77,2.6,5.77,5.77v11.54H113.43V211.5c0-3.17,2.6-5.77,5.77-5.77H280.79z
		 M286.57,257.66v69.25c0,3.17-2.6,5.77-5.77,5.77H119.21c-3.17,0-5.77-2.6-5.77-5.77v-69.25H286.57z M119.21,188.41
		c-12.73,0-23.08,10.35-23.08,23.08v115.42c0,12.73,10.35,23.08,23.08,23.08h161.59c12.73,0,23.08-10.35,23.08-23.08V211.5
		c0-12.73-10.35-23.08-23.08-23.08H119.21z M139.4,298.06c-4.8,0-8.66,3.86-8.66,8.66c0,4.8,3.86,8.66,8.66,8.66h17.31
		c4.8,0,8.66-3.86,8.66-8.66c0-4.8-3.86-8.66-8.66-8.66H139.4z M185.57,298.06c-4.8,0-8.66,3.86-8.66,8.66
		c0,4.8,3.86,8.66,8.66,8.66h40.4c4.8,0,8.66-3.86,8.66-8.66c0-4.8-3.86-8.66-8.66-8.66H185.57z M71.5,114.92H57.98
		c-11.2,0-20.29,9.09-20.29,20.29v33.09h54.1v-33.09C91.79,124.01,82.71,114.92,71.5,114.92z M139.13,50h-13.53
		c-11.2,0-20.29,9.09-20.29,20.29v98.02h54.1V70.29C159.42,59.09,150.34,50,139.13,50z M206.76,77.05h-13.53
		c-11.2,0-20.29,9.09-20.29,20.29v70.97h54.1V97.34C227.05,86.14,217.96,77.05,206.76,77.05z M342.02,65.47h-13.53
		c-11.2,0-20.29,9.09-20.29,20.29v82.54h54.1V85.76C362.31,74.56,353.22,65.47,342.02,65.47z M274.39,107.52h-13.53
		c-11.2,0-20.29,9.09-20.29,20.29v40.5h54.1v-40.5C294.68,116.61,285.59,107.52,274.39,107.52z"/>
</g>
<g id="Capa_6">
</g>
</svg>
